<svg width="191" height="191" viewBox="0 0 191 191" fill="none" xmlns="http://www.w3.org/2000/svg">
<path d="M81.1546 103.397C80.7361 103.153 80.8743 102.516 81.3562 102.468L85.1608 102.084C85.8073 102.018 86.3381 101.544 86.4758 100.909L87.2865 97.1717C87.3891 96.6983 88.0383 96.633 88.2335 97.0763L89.7746 100.576C90.0365 101.171 90.6512 101.53 91.2978 101.464L95.1023 101.08C95.5842 101.032 95.8473 101.628 95.486 101.951L92.6333 104.498C92.1485 104.931 91.9976 105.627 92.2594 106.222L93.8006 109.722C93.9957 110.165 93.509 110.599 93.0906 110.355L89.787 108.429C89.2256 108.102 88.5176 108.174 88.0328 108.606L85.1801 111.153C84.8188 111.476 84.255 111.147 84.3577 110.674L85.1683 106.937C85.3061 106.302 85.0196 105.65 84.4582 105.323L81.1546 103.397Z" fill="#FFFF9F" stroke="#FFFF9F"/>
<path d="M70.0819 85.5294C69.6274 85.362 69.6525 84.7107 70.1186 84.5789L72.7015 83.849C73.3268 83.6722 73.7678 83.1126 73.7929 82.4633L73.8965 79.7807C73.9152 79.2967 74.5421 79.1193 74.8114 79.5219L76.3046 81.7531C76.666 82.293 77.3338 82.5391 77.959 82.3623L80.5429 81.6314C81.0088 81.5 81.3708 82.0414 81.0714 82.4219L79.4106 84.5313C79.0087 85.0418 78.9812 85.7536 79.3425 86.2936L80.8356 88.5248C81.105 88.9273 80.7022 89.4393 80.2478 89.2722L77.728 88.3451C77.1181 88.1206 76.4334 88.3143 76.0314 88.8249L74.3706 90.9343C74.0711 91.3148 73.4598 91.0895 73.4784 90.6057L73.582 87.9231C73.6071 87.2737 73.2105 86.6819 72.6007 86.4574L70.0819 85.5294Z" fill="#FFFF9F" stroke="#FFFF9F"/>
<path d="M136.864 115.694C136.689 115.243 137.194 114.831 137.601 115.093L139.857 116.548C140.403 116.9 141.114 116.861 141.618 116.451L143.699 114.755C144.074 114.449 144.622 114.801 144.498 115.27L143.811 117.865C143.645 118.493 143.902 119.157 144.448 119.509L146.705 120.964C147.112 121.227 146.945 121.856 146.462 121.883L143.781 122.032C143.132 122.068 142.58 122.518 142.414 123.147L141.728 125.742C141.604 126.21 140.953 126.247 140.778 125.795L139.808 123.292C139.573 122.686 138.975 122.3 138.326 122.337L135.645 122.486C135.162 122.512 134.926 121.905 135.302 121.599L137.383 119.903C137.886 119.492 138.068 118.803 137.833 118.197L136.864 115.694Z" fill="#FFFF9F" stroke="#FFFF9F"/>
<path d="M77.6761 133.309C77.3593 132.943 77.6964 132.385 78.1681 132.495L80.7816 133.106C81.4144 133.254 82.0711 132.977 82.4072 132.421L83.7959 130.124C84.0464 129.709 84.6809 129.857 84.7218 130.34L84.949 133.015C85.004 133.662 85.4694 134.201 86.1021 134.349L88.717 134.959C89.1883 135.07 89.2432 135.719 88.7971 135.907L86.323 136.949C85.7242 137.202 85.3559 137.811 85.4107 138.459L85.6379 141.134C85.6788 141.616 85.0786 141.869 84.7618 141.503L83.0051 139.473C82.5801 138.981 81.8871 138.82 81.2882 139.072L78.8142 140.114C78.3679 140.302 77.942 139.809 78.1923 139.395L79.581 137.097C79.9171 136.541 79.8564 135.831 79.4314 135.34L77.6761 133.309Z" fill="#FFFF9F" stroke="#FFFF9F"/>
<path d="M42.1763 54.0939C41.7012 53.9999 41.6238 53.3527 42.0635 53.1494L44.4998 52.0233C45.0896 51.7506 45.4374 51.1288 45.3603 50.4836L45.0418 47.818C44.9843 47.3371 45.5757 47.0635 45.9048 47.4188L47.7295 49.3881C48.1711 49.8647 48.8693 50.0029 49.4591 49.7303L51.8963 48.6031C52.3357 48.4002 52.7782 48.8782 52.5422 49.3009L51.2329 51.6447C50.916 52.212 51.0006 52.9192 51.4422 53.3959L53.2668 55.3652C53.5959 55.7204 53.2785 56.2893 52.8035 56.1956L50.1694 55.6753C49.5319 55.5492 48.8861 55.848 48.5692 56.4153L47.2599 58.7591C47.0237 59.1818 46.3847 59.0553 46.3271 58.5745L46.0086 55.9089C45.9315 55.2636 45.447 54.7413 44.8095 54.6153L42.1763 54.0939Z" fill="#FFFF9F" stroke="#FFFF9F"/>
<line x1="50.7698" y1="58.1497" x2="70.9382" y2="81.1064" stroke="#FFFF9F" stroke-width="2" stroke-linecap="round"/>
<line x1="78.0512" y1="90.9043" x2="83.9043" y2="99.2658" stroke="#FFFF9F" stroke-width="2" stroke-linecap="round"/>
<line x1="88.7178" y1="111.452" x2="85.1516" y2="127.499" stroke="#FFFF9F" stroke-width="2" stroke-linecap="round"/>
<line x1="94.9095" y1="105.999" x2="134.999" y2="118.408" stroke="#FFFF9F" stroke-width="2" stroke-linecap="round"/>
</svg>
