<svg width="191" height="191" viewBox="0 0 191 191" fill="none" xmlns="http://www.w3.org/2000/svg">
<line x1="38.4966" y1="111.324" x2="34.3242" y2="120.503" stroke="#FFFF9F" stroke-width="2" stroke-linecap="round"/>
<line x1="48.5528" y1="116.342" x2="36.3416" y2="122.447" stroke="#FFFF9F" stroke-width="2" stroke-linecap="round"/>
<line x1="58.5346" y1="78.1275" x2="44.383" y2="99.9601" stroke="#FFFF9F" stroke-width="2" stroke-linecap="round"/>
<line x1="63" y1="114" x2="58" y2="114" stroke="#FFFF9F" stroke-width="2" stroke-linecap="round"/>
<line x1="69.9059" y1="107.589" x2="82.5889" y2="93.0941" stroke="#FFFF9F" stroke-width="2" stroke-linecap="round"/>
<line x1="64.6144" y1="67.5127" x2="74.1062" y2="50.5121" stroke="#FFFF9F" stroke-width="2" stroke-linecap="round"/>
<line x1="65.6438" y1="30.9242" x2="68.5534" y2="24.8683" stroke="#FFFF9F" stroke-width="2" stroke-linecap="round"/>
<line x1="72.7094" y1="41.699" x2="69.9344" y2="39.4078" stroke="#FFFF9F" stroke-width="2" stroke-linecap="round"/>
<line x1="74.3796" y1="38.1488" x2="73.1209" y2="27.2077" stroke="#FFFF9F" stroke-width="2" stroke-linecap="round"/>
<line x1="104.662" y1="85.7501" x2="127.842" y2="78.6182" stroke="#FFFF9F" stroke-width="2" stroke-linecap="round"/>
<line x1="140.376" y1="75.8065" x2="145.986" y2="72.6237" stroke="#FFFF9F" stroke-width="2" stroke-linecap="round"/>
<line x1="153.014" y1="75.0252" x2="154.219" y2="79.8045" stroke="#FFFF9F" stroke-width="2" stroke-linecap="round"/>
<line x1="165.269" y1="79.9193" x2="161.319" y2="81.6688" stroke="#FFFF9F" stroke-width="2" stroke-linecap="round"/>
<line x1="155.044" y1="63.9087" x2="152.27" y2="67.2196" stroke="#FFFF9F" stroke-width="2" stroke-linecap="round"/>
<line x1="167.323" y1="64.3894" x2="163.306" y2="63.6621" stroke="#FFFF9F" stroke-width="2" stroke-linecap="round"/>
<line x1="170.247" y1="74.2177" x2="170.318" y2="73.9432" stroke="#FFFF9F" stroke-width="2" stroke-linecap="round"/>
<line x1="94.9385" y1="88.6836" x2="95.2396" y2="88.5848" stroke="#FFFF9F" stroke-width="2" stroke-linecap="round"/>
<path d="M30.467 119.898C30.6541 119.451 31.3037 119.505 31.4149 119.976L32.2928 123.698C32.442 124.33 32.9817 124.794 33.6294 124.848L37.4406 125.163C37.9233 125.203 38.0729 125.838 37.6589 126.09L34.3904 128.075C33.8351 128.412 33.56 129.069 33.7092 129.701L34.5871 133.423C34.6983 133.894 34.1411 134.233 33.774 133.917L30.8761 131.422C30.3836 130.998 29.6738 130.939 29.1184 131.276L25.8499 133.262C25.4359 133.513 24.942 133.088 25.1291 132.641L26.6064 129.114C26.8575 128.514 26.694 127.822 26.2016 127.398L23.3036 124.902C22.9365 124.586 23.1884 123.985 23.6712 124.025L27.4824 124.34C28.13 124.393 28.7386 124.024 28.9897 123.425L30.467 119.898Z" fill="#FFFF9F" stroke="#FFFF9F"/>
<path d="M133.002 72.3251C133.211 71.8882 133.857 71.9742 133.945 72.4506L134.373 74.7824C134.491 75.4215 135.007 75.9119 135.651 75.9977L138.001 76.3105C138.481 76.3744 138.599 77.0161 138.173 77.2466L136.088 78.375C135.517 78.6842 135.209 79.3261 135.327 79.9652L135.755 82.298C135.842 82.7742 135.269 83.084 134.919 82.7502L133.201 81.1157C132.731 80.6678 132.025 80.5738 131.453 80.8831L129.368 82.0114C128.942 82.2419 128.47 81.793 128.679 81.3562L129.702 79.2167C129.983 78.6305 129.854 77.9306 129.384 77.4827L127.666 75.8483C127.315 75.5144 127.597 74.9258 128.077 74.9897L130.427 75.3025C131.071 75.3882 131.698 75.0497 131.978 74.4637L133.002 72.3251Z" fill="#FFFF9F" stroke="#FFFF9F"/>
<path d="M86.993 85.3738C87.1177 84.9058 87.7686 84.8708 87.9428 85.3228L88.7951 87.5351C89.0287 88.1415 89.6265 88.528 90.2753 88.4932L92.643 88.3661C93.1267 88.3401 93.3611 88.949 92.9851 89.2543L91.1446 90.7487C90.6402 91.1583 90.4568 91.8459 90.6904 92.4523L91.5428 94.6656C91.7167 95.1175 91.2108 95.5279 90.8043 95.2647L88.8144 93.976C88.2689 93.6228 87.5577 93.661 87.0533 94.0706L85.2128 95.565C84.8368 95.8702 84.2899 95.5164 84.4144 95.0485L85.0248 92.7566C85.1921 92.1287 84.9361 91.4647 84.3907 91.1115L82.4008 89.8228C81.9942 89.5595 82.1621 88.929 82.6457 88.9031L85.0134 88.7759C85.6622 88.741 86.2152 88.2926 86.3825 87.6647L86.993 85.3738Z" fill="#FFFF9F" stroke="#FFFF9F"/>
<path d="M169.224 61.9462C169.184 61.4635 169.785 61.2114 170.101 61.5783L171.649 63.3743C172.073 63.8665 172.766 64.0292 173.365 63.7779L175.552 62.8608C175.999 62.6734 176.424 63.1678 176.173 63.5819L174.944 65.6088C174.606 66.1644 174.665 66.8736 175.09 67.3659L176.638 69.1628C176.953 69.5297 176.615 70.0865 176.144 69.9756L173.836 69.4324C173.204 69.2835 172.547 69.559 172.21 70.1146L170.98 72.1416C170.729 72.5556 170.095 72.4066 170.055 71.9241L169.857 69.5605C169.804 68.913 169.339 68.3739 168.706 68.2251L166.399 67.6819C165.927 67.5709 165.873 66.9207 166.32 66.7334L168.506 65.8162C169.105 65.5648 169.475 64.9564 169.421 64.3088L169.224 61.9462Z" fill="#FFFF9F" stroke="#FFFF9F"/>
<path d="M62.4245 31.7551C62.3785 31.2729 62.9765 31.0135 63.2971 31.3766L64.3852 32.6088C64.8153 33.0959 65.5107 33.251 66.1068 32.9925L67.6164 32.3377C68.0605 32.1455 68.4916 32.6334 68.2459 33.0503L67.4095 34.467C67.0793 35.0265 67.1468 35.735 67.5769 36.2221L68.6653 37.4553C68.9859 37.8183 68.6548 38.3801 68.182 38.2748L66.5771 37.9172C65.9427 37.776 65.2894 38.0594 64.9591 38.619L64.1236 40.0353C63.8774 40.4524 63.2409 40.3103 63.1949 39.8282L63.0382 38.1908C62.9764 37.544 62.5053 37.0106 61.871 36.8694L60.2652 36.5122C59.7929 36.4067 59.7312 35.7585 60.175 35.5656L61.6846 34.9107C62.2806 34.6521 62.6425 34.0383 62.5808 33.3915L62.4245 31.7551Z" fill="#FFFF9F" stroke="#FFFF9F"/>
<path d="M71.4318 18.3369C71.5047 17.8581 72.1478 17.7522 72.3704 18.1824L73.1255 19.6426C73.424 20.2197 74.0606 20.5396 74.7018 20.4341L76.3254 20.1667C76.803 20.0885 77.1023 20.6667 76.7624 21.0113L75.6061 22.1815C75.1495 22.6437 75.0424 23.3473 75.3408 23.9245L76.0961 25.3856C76.3186 25.8159 75.8606 26.2801 75.4277 26.0628L73.9582 25.325C73.3774 25.0335 72.6747 25.1492 72.218 25.6115L71.0627 26.7816C70.7223 27.1262 70.1396 26.8333 70.2124 26.3545L70.4593 24.7283C70.5569 24.0859 70.2299 23.4538 69.6492 23.1624L68.1787 22.4247C67.7463 22.2073 67.8444 21.5636 68.3219 21.4846L69.9455 21.2173C70.5866 21.1116 71.0871 20.6045 71.1848 19.9621L71.4318 18.3369Z" fill="#FFFF9F" stroke="#FFFF9F"/>
<path d="M74.6371 40.432C74.6344 39.9477 75.2532 39.7429 75.5401 40.1332L76.5134 41.4579C76.8982 41.9814 77.5769 42.1982 78.1938 41.9941L79.756 41.4771C80.2155 41.3254 80.6012 41.8499 80.3192 42.2432L79.3593 43.5793C78.9803 44.107 78.9842 44.8187 79.3689 45.3423L80.3426 46.668C80.6294 47.0583 80.2493 47.5882 79.7878 47.441L78.2213 46.9411C77.6022 46.7437 76.9261 46.9675 76.547 47.4953L75.5881 48.8311C75.3055 49.2245 74.6844 49.026 74.6817 48.5417L74.6722 46.8969C74.6686 46.2472 74.2471 45.6737 73.628 45.4763L72.0606 44.9767C71.5996 44.8294 71.5962 44.1783 72.0555 44.0259L73.6177 43.5088C74.2344 43.3045 74.6498 42.7256 74.6463 42.0759L74.6371 40.432Z" fill="#FFFF9F" stroke="#FFFF9F"/>
<path d="M61.4318 67.3369C61.5047 66.8581 62.1478 66.7522 62.3704 67.1824L63.1255 68.6426C63.424 69.2197 64.0606 69.5396 64.7018 69.4341L66.3254 69.1667C66.803 69.0885 67.1023 69.6667 66.7624 70.0113L65.6061 71.1815C65.1495 71.6437 65.0424 72.3473 65.3408 72.9245L66.0961 74.3856C66.3186 74.8159 65.8606 75.2801 65.4277 75.0628L63.9582 74.325C63.3774 74.0335 62.6747 74.1492 62.218 74.6115L61.0627 75.7816C60.7223 76.1262 60.1396 75.8333 60.2124 75.3545L60.4593 73.7283C60.5569 73.0859 60.2299 72.4538 59.6492 72.1624L58.1787 71.4247C57.7463 71.2073 57.8444 70.5636 58.3219 70.4846L59.9455 70.2173C60.5866 70.1116 61.0871 69.6045 61.1848 68.9621L61.4318 67.3369Z" fill="#FFFF9F" stroke="#FFFF9F"/>
<path d="M40.5118 100.316C40.5936 99.8381 41.2386 99.7442 41.4531 100.179L42.1808 101.653C42.4686 102.235 43.0991 102.567 43.7421 102.473L45.3705 102.236C45.8494 102.167 46.1379 102.751 45.7916 103.089L44.6137 104.237C44.1486 104.691 44.0284 105.392 44.316 105.975L45.0439 107.45C45.2584 107.884 44.7918 108.34 44.363 108.115L42.9076 107.349C42.3323 107.047 41.6275 107.15 41.1623 107.604L39.9853 108.752C39.6386 109.09 39.0615 108.786 39.1432 108.309L39.4204 106.688C39.5299 106.047 39.2148 105.409 38.6396 105.107L37.1831 104.342C36.7549 104.117 36.8649 103.475 37.3437 103.405L38.9721 103.168C39.615 103.074 40.1249 102.576 40.2346 101.936L40.5118 100.316Z" fill="#FFFF9F" stroke="#FFFF9F"/>
<path d="M51.7318 109.337C51.8047 108.858 52.4478 108.752 52.6704 109.182L53.4254 110.643C53.724 111.22 54.3606 111.54 55.0018 111.434L56.6254 111.167C57.103 111.088 57.4022 111.667 57.0624 112.011L55.9061 113.181C55.4494 113.644 55.3424 114.347 55.6408 114.924L56.3961 116.386C56.6186 116.816 56.1606 117.28 55.7277 117.063L54.2582 116.325C53.6774 116.033 52.9747 116.149 52.518 116.612L51.3626 117.782C51.0222 118.126 50.4396 117.833 50.5124 117.354L50.7593 115.728C50.8569 115.086 50.5299 114.454 49.9492 114.162L48.4787 113.425C48.0463 113.207 48.1444 112.564 48.6218 112.485L50.2455 112.217C50.8866 112.112 51.3871 111.605 51.4848 110.962L51.7318 109.337Z" fill="#FFFF9F" stroke="#FFFF9F"/>
<path d="M66.4318 107.337C66.5047 106.858 67.1478 106.752 67.3704 107.182L68.1255 108.643C68.424 109.22 69.0606 109.54 69.7018 109.434L71.3254 109.167C71.803 109.088 72.1023 109.667 71.7624 110.011L70.6061 111.181C70.1495 111.644 70.0424 112.347 70.3408 112.924L71.0961 114.386C71.3186 114.816 70.8606 115.28 70.4277 115.063L68.9582 114.325C68.3774 114.033 67.6747 114.149 67.218 114.612L66.0627 115.782C65.7223 116.126 65.1396 115.833 65.2124 115.354L65.4593 113.728C65.5569 113.086 65.2299 112.454 64.6492 112.162L63.1787 111.425C62.7463 111.207 62.8444 110.564 63.3219 110.485L64.9455 110.217C65.5866 110.112 66.0871 109.605 66.1848 108.962L66.4318 107.337Z" fill="#FFFF9F" stroke="#FFFF9F"/>
<path d="M156.135 79.9986C156.328 79.5544 156.977 79.6168 157.082 80.0897L157.257 80.8787C157.398 81.5127 157.931 81.9842 158.577 82.0465L159.382 82.124C159.864 82.1703 160.005 82.8063 159.588 83.0522L158.892 83.4631C158.332 83.793 158.049 84.4456 158.189 85.08L158.364 85.8688C158.468 86.3417 157.907 86.6731 157.544 86.3522L156.939 85.8162C156.453 85.3857 155.744 85.3175 155.184 85.6474L154.487 86.0581C154.07 86.3034 153.582 85.8716 153.775 85.4276L154.097 84.6864C154.356 84.0904 154.202 83.3957 153.715 82.9651L153.11 82.4292C152.747 82.1083 153.007 81.5108 153.489 81.5572L154.293 81.6345C154.94 81.6967 155.554 81.3355 155.813 80.7397L156.135 79.9986Z" fill="#FFFF9F" stroke="#FFFF9F"/>
<path d="M169.26 75.9949C169.469 75.5583 170.115 75.6451 170.202 76.1216L170.348 76.9166C170.464 77.5556 170.979 78.0467 171.623 78.1335L172.424 78.2412C172.904 78.3057 173.021 78.9466 172.595 79.1766L171.884 79.5609C171.312 79.8694 171.004 80.5108 171.121 81.1501L171.265 81.945C171.352 82.4215 170.778 82.7314 170.428 82.3971L169.844 81.8387C169.374 81.3901 168.668 81.2952 168.096 81.6038L167.384 81.988C166.958 82.2173 166.487 81.7674 166.697 81.331L167.046 80.6025C167.327 80.0167 167.199 79.3166 166.729 78.8681L166.145 78.3097C165.795 77.9753 166.077 77.3881 166.557 77.4526L167.357 77.5602C168.001 77.6467 168.628 77.3089 168.909 76.7233L169.26 75.9949Z" fill="#FFFF9F" stroke="#FFFF9F"/>
<path d="M156.549 58.4945C156.502 58.0125 157.099 57.7509 157.421 58.1128L157.958 58.7165C158.39 59.2017 159.085 59.3539 159.68 59.0934L160.42 58.769C160.864 58.5746 161.297 59.0614 161.053 59.4794L160.645 60.1771C160.317 60.7379 160.387 61.4461 160.819 61.9316L161.355 62.5357C161.677 62.8976 161.348 63.4605 160.875 63.357L160.085 63.1835C159.451 63.0446 158.798 63.3304 158.47 63.8912L158.062 64.5894C157.817 65.0068 157.181 64.867 157.133 64.3852L157.053 63.5813C156.989 62.9346 156.516 62.403 155.881 62.2641L155.092 62.0906C154.618 61.9871 154.554 61.3387 154.998 61.1444L155.738 60.8203C156.333 60.5596 156.693 59.9453 156.629 59.2988L156.549 58.4945Z" fill="#FFFF9F" stroke="#FFFF9F"/>
<path d="M149.629 68.4463C149.595 67.9631 150.199 67.7185 150.511 68.0894L151.031 68.708C151.449 69.2052 152.139 69.3769 152.741 69.1334L153.491 68.83C153.94 68.6483 154.359 69.147 154.103 69.5579L153.676 70.2439C153.332 70.7952 153.382 71.5051 153.8 72.0026L154.319 72.6216C154.63 72.9924 154.286 73.5459 153.815 73.429L153.031 73.2333C152.401 73.0765 151.741 73.3438 151.397 73.8951L150.969 74.5814C150.712 74.9918 150.08 74.8341 150.046 74.3511L149.989 73.5453C149.943 72.8971 149.485 72.3523 148.854 72.1955L148.07 71.9998C147.6 71.8829 147.555 71.233 148.004 71.0513L148.752 70.7482C149.354 70.5045 149.731 69.9006 149.686 69.2525L149.629 68.4463Z" fill="#FFFF9F" stroke="#FFFF9F"/>
<path d="M98.888 84.02C99.0472 83.5626 99.6989 83.5761 99.839 84.0397L100.073 84.8133C100.261 85.435 100.828 85.8651 101.477 85.8788L102.285 85.8955C102.77 85.9056 102.958 86.5292 102.561 86.8057L101.897 87.2677C101.364 87.6387 101.13 88.3107 101.318 88.9328L101.551 89.7063C101.691 90.17 101.156 90.5426 100.77 90.2498L100.127 89.7608C99.609 89.368 98.8969 89.3532 98.3634 89.7242L97.6994 90.1861C97.3017 90.462 96.7834 90.068 96.9426 89.6108L97.2075 88.8475C97.4211 88.2338 97.2151 87.5526 96.6974 87.1598L96.0541 86.6708C95.6682 86.378 95.8825 85.7627 96.3668 85.7728L97.1742 85.7895C97.8238 85.803 98.4085 85.3968 98.6221 84.7832L98.888 84.02Z" fill="#FFFF9F" stroke="#FFFF9F"/>
</svg>
