<svg width="191" height="191" viewBox="0 0 191 191" fill="none" xmlns="http://www.w3.org/2000/svg">
<line x1="33.4966" y1="131.324" x2="29.3242" y2="140.503" stroke="#FFFF9F" stroke-width="2" stroke-linecap="round"/>
<line x1="43.5528" y1="136.342" x2="31.3416" y2="142.447" stroke="#FFFF9F" stroke-width="2" stroke-linecap="round"/>
<line x1="53.5346" y1="98.1275" x2="39.383" y2="119.96" stroke="#FFFF9F" stroke-width="2" stroke-linecap="round"/>
<line x1="58" y1="134" x2="53" y2="134" stroke="#FFFF9F" stroke-width="2" stroke-linecap="round"/>
<line x1="64.9059" y1="127.589" x2="77.5889" y2="113.094" stroke="#FFFF9F" stroke-width="2" stroke-linecap="round"/>
<line x1="59.6144" y1="87.5127" x2="69.1062" y2="70.5121" stroke="#FFFF9F" stroke-width="2" stroke-linecap="round"/>
<line x1="60.6438" y1="50.9242" x2="63.5534" y2="44.8683" stroke="#FFFF9F" stroke-width="2" stroke-linecap="round"/>
<line x1="67.7094" y1="61.699" x2="64.9344" y2="59.4078" stroke="#FFFF9F" stroke-width="2" stroke-linecap="round"/>
<line x1="69.3796" y1="58.1488" x2="68.1209" y2="47.2077" stroke="#FFFF9F" stroke-width="2" stroke-linecap="round"/>
<line x1="99.6617" y1="105.75" x2="122.842" y2="98.6182" stroke="#FFFF9F" stroke-width="2" stroke-linecap="round"/>
<line x1="135.376" y1="95.8065" x2="140.986" y2="92.6237" stroke="#FFFF9F" stroke-width="2" stroke-linecap="round"/>
<line x1="148.014" y1="95.0252" x2="149.219" y2="99.8045" stroke="#FFFF9F" stroke-width="2" stroke-linecap="round"/>
<line x1="160.269" y1="99.9193" x2="156.319" y2="101.669" stroke="#FFFF9F" stroke-width="2" stroke-linecap="round"/>
<line x1="150.044" y1="83.9087" x2="147.27" y2="87.2196" stroke="#FFFF9F" stroke-width="2" stroke-linecap="round"/>
<line x1="162.323" y1="84.3894" x2="158.306" y2="83.6621" stroke="#FFFF9F" stroke-width="2" stroke-linecap="round"/>
<line x1="165.247" y1="94.2177" x2="165.318" y2="93.9432" stroke="#FFFF9F" stroke-width="2" stroke-linecap="round"/>
<line x1="89.9385" y1="108.684" x2="90.2396" y2="108.585" stroke="#FFFF9F" stroke-width="2" stroke-linecap="round"/>
<path d="M25.467 139.898C25.6541 139.451 26.3037 139.505 26.4149 139.976L27.2928 143.698C27.442 144.33 27.9817 144.794 28.6294 144.848L32.4406 145.163C32.9233 145.203 33.0729 145.838 32.6589 146.09L29.3904 148.075C28.8351 148.412 28.56 149.069 28.7092 149.701L29.5871 153.423C29.6983 153.894 29.1411 154.233 28.774 153.917L25.8761 151.422C25.3836 150.998 24.6738 150.939 24.1184 151.276L20.8499 153.262C20.4359 153.513 19.942 153.088 20.1291 152.641L21.6064 149.114C21.8575 148.514 21.694 147.822 21.2016 147.398L18.3036 144.902C17.9365 144.586 18.1884 143.985 18.6712 144.025L22.4824 144.34C23.13 144.393 23.7386 144.024 23.9897 143.425L25.467 139.898Z" fill="#FFFF9F" stroke="#FFFF9F"/>
<path d="M128.002 92.3251C128.211 91.8882 128.857 91.9742 128.945 92.4506L129.373 94.7824C129.491 95.4215 130.007 95.9119 130.651 95.9977L133.001 96.3105C133.481 96.3744 133.599 97.0161 133.173 97.2466L131.088 98.375C130.517 98.6842 130.209 99.3261 130.327 99.9652L130.755 102.298C130.842 102.774 130.269 103.084 129.919 102.75L128.201 101.116C127.731 100.668 127.025 100.574 126.453 100.883L124.368 102.011C123.942 102.242 123.47 101.793 123.679 101.356L124.702 99.2167C124.983 98.6305 124.854 97.9306 124.384 97.4827L122.666 95.8483C122.315 95.5144 122.597 94.9258 123.077 94.9897L125.427 95.3025C126.071 95.3882 126.698 95.0497 126.978 94.4637L128.002 92.3251Z" fill="#FFFF9F" stroke="#FFFF9F"/>
<path d="M81.993 105.374C82.1177 104.906 82.7686 104.871 82.9428 105.323L83.7951 107.535C84.0287 108.141 84.6265 108.528 85.2753 108.493L87.643 108.366C88.1267 108.34 88.3611 108.949 87.9851 109.254L86.1446 110.749C85.6402 111.158 85.4568 111.846 85.6904 112.452L86.5428 114.666C86.7167 115.117 86.2108 115.528 85.8043 115.265L83.8144 113.976C83.2689 113.623 82.5577 113.661 82.0533 114.071L80.2128 115.565C79.8368 115.87 79.2899 115.516 79.4144 115.048L80.0248 112.757C80.1921 112.129 79.9361 111.465 79.3907 111.111L77.4008 109.823C76.9942 109.56 77.1621 108.929 77.6457 108.903L80.0134 108.776C80.6622 108.741 81.2152 108.293 81.3825 107.665L81.993 105.374Z" fill="#FFFF9F" stroke="#FFFF9F"/>
<path d="M164.224 81.9462C164.184 81.4635 164.785 81.2114 165.101 81.5783L166.649 83.3743C167.073 83.8665 167.766 84.0292 168.365 83.7779L170.552 82.8608C170.999 82.6734 171.424 83.1678 171.173 83.5819L169.944 85.6088C169.606 86.1644 169.665 86.8736 170.09 87.3659L171.638 89.1628C171.953 89.5297 171.615 90.0865 171.144 89.9756L168.836 89.4324C168.204 89.2835 167.547 89.559 167.21 90.1146L165.98 92.1416C165.729 92.5556 165.095 92.4066 165.055 91.9241L164.857 89.5605C164.804 88.913 164.339 88.3739 163.706 88.2251L161.399 87.6819C160.927 87.5709 160.873 86.9207 161.32 86.7334L163.506 85.8162C164.105 85.5648 164.475 84.9564 164.421 84.3088L164.224 81.9462Z" fill="#FFFF9F" stroke="#FFFF9F"/>
<path d="M57.4245 51.7551C57.3785 51.2729 57.9765 51.0135 58.2971 51.3766L59.3852 52.6088C59.8153 53.0959 60.5107 53.251 61.1068 52.9925L62.6164 52.3377C63.0605 52.1455 63.4916 52.6334 63.2459 53.0503L62.4095 54.467C62.0793 55.0265 62.1468 55.735 62.5769 56.2221L63.6653 57.4553C63.9859 57.8183 63.6548 58.3801 63.182 58.2748L61.5771 57.9172C60.9427 57.776 60.2894 58.0594 59.9591 58.619L59.1236 60.0353C58.8774 60.4524 58.2409 60.3103 58.1949 59.8282L58.0382 58.1908C57.9764 57.544 57.5053 57.0106 56.871 56.8694L55.2652 56.5122C54.7929 56.4067 54.7312 55.7585 55.175 55.5656L56.6846 54.9107C57.2806 54.6521 57.6425 54.0383 57.5808 53.3915L57.4245 51.7551Z" fill="#FFFF9F" stroke="#FFFF9F"/>
<path d="M66.4318 38.3369C66.5047 37.8581 67.1478 37.7522 67.3704 38.1824L68.1255 39.6426C68.424 40.2197 69.0606 40.5396 69.7018 40.4341L71.3254 40.1667C71.803 40.0885 72.1023 40.6667 71.7624 41.0113L70.6061 42.1815C70.1495 42.6437 70.0424 43.3473 70.3408 43.9245L71.0961 45.3856C71.3186 45.8159 70.8606 46.2801 70.4277 46.0628L68.9582 45.325C68.3774 45.0335 67.6747 45.1492 67.218 45.6115L66.0627 46.7816C65.7223 47.1262 65.1396 46.8333 65.2124 46.3545L65.4593 44.7283C65.5569 44.0859 65.2299 43.4538 64.6492 43.1624L63.1787 42.4247C62.7463 42.2073 62.8444 41.5636 63.3219 41.4846L64.9455 41.2173C65.5866 41.1116 66.0871 40.6045 66.1848 39.9621L66.4318 38.3369Z" fill="#FFFF9F" stroke="#FFFF9F"/>
<path d="M69.6371 60.432C69.6344 59.9477 70.2532 59.7429 70.5401 60.1332L71.5134 61.4579C71.8982 61.9814 72.5769 62.1982 73.1938 61.9941L74.756 61.4771C75.2155 61.3254 75.6012 61.8499 75.3192 62.2432L74.3593 63.5793C73.9803 64.107 73.9842 64.8187 74.3689 65.3423L75.3426 66.668C75.6294 67.0583 75.2493 67.5882 74.7878 67.441L73.2213 66.9411C72.6022 66.7437 71.9261 66.9675 71.547 67.4953L70.5881 68.8311C70.3055 69.2245 69.6844 69.026 69.6817 68.5417L69.6722 66.8969C69.6686 66.2472 69.2471 65.6737 68.628 65.4763L67.0606 64.9767C66.5996 64.8294 66.5962 64.1783 67.0555 64.0259L68.6177 63.5088C69.2344 63.3045 69.6498 62.7256 69.6463 62.0759L69.6371 60.432Z" fill="#FFFF9F" stroke="#FFFF9F"/>
<path d="M56.4318 87.3369C56.5047 86.8581 57.1478 86.7522 57.3704 87.1824L58.1255 88.6426C58.424 89.2197 59.0606 89.5396 59.7018 89.4341L61.3254 89.1667C61.803 89.0885 62.1023 89.6667 61.7624 90.0113L60.6061 91.1815C60.1495 91.6437 60.0424 92.3473 60.3408 92.9245L61.0961 94.3856C61.3186 94.8159 60.8606 95.2801 60.4277 95.0628L58.9582 94.325C58.3774 94.0335 57.6747 94.1492 57.218 94.6115L56.0627 95.7816C55.7223 96.1262 55.1396 95.8333 55.2124 95.3545L55.4593 93.7283C55.5569 93.0859 55.2299 92.4538 54.6492 92.1624L53.1787 91.4247C52.7463 91.2073 52.8444 90.5636 53.3219 90.4846L54.9455 90.2173C55.5866 90.1116 56.0871 89.6045 56.1848 88.9621L56.4318 87.3369Z" fill="#FFFF9F" stroke="#FFFF9F"/>
<path d="M35.5118 120.316C35.5936 119.838 36.2386 119.744 36.4531 120.179L37.1808 121.653C37.4686 122.235 38.0991 122.567 38.7421 122.473L40.3705 122.236C40.8494 122.167 41.1379 122.751 40.7916 123.089L39.6137 124.237C39.1486 124.691 39.0284 125.392 39.316 125.975L40.0439 127.45C40.2584 127.884 39.7918 128.34 39.363 128.115L37.9076 127.349C37.3323 127.047 36.6275 127.15 36.1623 127.604L34.9853 128.752C34.6386 129.09 34.0615 128.786 34.1432 128.309L34.4204 126.688C34.5299 126.047 34.2148 125.409 33.6396 125.107L32.1831 124.342C31.7549 124.117 31.8649 123.475 32.3437 123.405L33.9721 123.168C34.615 123.074 35.1249 122.576 35.2346 121.936L35.5118 120.316Z" fill="#FFFF9F" stroke="#FFFF9F"/>
<path d="M46.7318 129.337C46.8047 128.858 47.4478 128.752 47.6704 129.182L48.4254 130.643C48.724 131.22 49.3606 131.54 50.0018 131.434L51.6254 131.167C52.103 131.088 52.4022 131.667 52.0624 132.011L50.9061 133.181C50.4494 133.644 50.3424 134.347 50.6408 134.924L51.3961 136.386C51.6186 136.816 51.1606 137.28 50.7277 137.063L49.2582 136.325C48.6774 136.033 47.9747 136.149 47.518 136.612L46.3626 137.782C46.0222 138.126 45.4396 137.833 45.5124 137.354L45.7593 135.728C45.8569 135.086 45.5299 134.454 44.9492 134.162L43.4787 133.425C43.0463 133.207 43.1444 132.564 43.6218 132.485L45.2455 132.217C45.8866 132.112 46.3871 131.605 46.4848 130.962L46.7318 129.337Z" fill="#FFFF9F" stroke="#FFFF9F"/>
<path d="M61.4318 127.337C61.5047 126.858 62.1478 126.752 62.3704 127.182L63.1255 128.643C63.424 129.22 64.0606 129.54 64.7018 129.434L66.3254 129.167C66.803 129.088 67.1023 129.667 66.7624 130.011L65.6061 131.181C65.1495 131.644 65.0424 132.347 65.3408 132.924L66.0961 134.386C66.3186 134.816 65.8606 135.28 65.4277 135.063L63.9582 134.325C63.3774 134.033 62.6747 134.149 62.218 134.612L61.0627 135.782C60.7223 136.126 60.1396 135.833 60.2124 135.354L60.4593 133.728C60.5569 133.086 60.2299 132.454 59.6492 132.162L58.1787 131.425C57.7463 131.207 57.8444 130.564 58.3219 130.485L59.9455 130.217C60.5866 130.112 61.0871 129.605 61.1848 128.962L61.4318 127.337Z" fill="#FFFF9F" stroke="#FFFF9F"/>
<path d="M151.135 99.9986C151.328 99.5544 151.977 99.6168 152.082 100.09L152.257 100.879C152.398 101.513 152.931 101.984 153.577 102.047L154.382 102.124C154.864 102.17 155.005 102.806 154.588 103.052L153.892 103.463C153.332 103.793 153.049 104.446 153.189 105.08L153.364 105.869C153.468 106.342 152.907 106.673 152.544 106.352L151.939 105.816C151.453 105.386 150.744 105.317 150.184 105.647L149.487 106.058C149.07 106.303 148.582 105.872 148.775 105.428L149.097 104.686C149.356 104.09 149.202 103.396 148.715 102.965L148.11 102.429C147.747 102.108 148.007 101.511 148.489 101.557L149.293 101.635C149.94 101.697 150.554 101.336 150.813 100.74L151.135 99.9986Z" fill="#FFFF9F" stroke="#FFFF9F"/>
<path d="M164.26 95.9949C164.469 95.5583 165.115 95.6451 165.202 96.1216L165.348 96.9166C165.464 97.5556 165.979 98.0467 166.623 98.1335L167.424 98.2412C167.904 98.3057 168.021 98.9466 167.595 99.1766L166.884 99.5609C166.312 99.8694 166.004 100.511 166.121 101.15L166.265 101.945C166.352 102.421 165.778 102.731 165.428 102.397L164.844 101.839C164.374 101.39 163.668 101.295 163.096 101.604L162.384 101.988C161.958 102.217 161.487 101.767 161.697 101.331L162.046 100.602C162.327 100.017 162.199 99.3166 161.729 98.8681L161.145 98.3097C160.795 97.9753 161.077 97.3881 161.557 97.4526L162.357 97.5602C163.001 97.6467 163.628 97.3089 163.909 96.7233L164.26 95.9949Z" fill="#FFFF9F" stroke="#FFFF9F"/>
<path d="M151.549 78.4945C151.502 78.0125 152.099 77.7509 152.421 78.1128L152.958 78.7165C153.39 79.2017 154.085 79.3539 154.68 79.0934L155.42 78.769C155.864 78.5746 156.297 79.0614 156.053 79.4794L155.645 80.1771C155.317 80.7379 155.387 81.4461 155.819 81.9316L156.355 82.5357C156.677 82.8976 156.348 83.4605 155.875 83.357L155.085 83.1835C154.451 83.0446 153.798 83.3304 153.47 83.8912L153.062 84.5894C152.817 85.0068 152.181 84.867 152.133 84.3852L152.053 83.5813C151.989 82.9346 151.516 82.403 150.881 82.2641L150.092 82.0906C149.618 81.9871 149.554 81.3387 149.998 81.1444L150.738 80.8203C151.333 80.5596 151.693 79.9453 151.629 79.2988L151.549 78.4945Z" fill="#FFFF9F" stroke="#FFFF9F"/>
<path d="M144.629 88.4463C144.595 87.9631 145.199 87.7185 145.511 88.0894L146.031 88.708C146.449 89.2052 147.139 89.3769 147.741 89.1334L148.491 88.83C148.94 88.6483 149.359 89.147 149.103 89.5579L148.676 90.2439C148.332 90.7952 148.382 91.5051 148.8 92.0026L149.319 92.6216C149.63 92.9924 149.286 93.5459 148.815 93.429L148.031 93.2333C147.401 93.0765 146.741 93.3438 146.397 93.8951L145.969 94.5814C145.712 94.9918 145.08 94.8341 145.046 94.3511L144.989 93.5453C144.943 92.8971 144.485 92.3523 143.854 92.1955L143.07 91.9998C142.6 91.8829 142.555 91.233 143.004 91.0513L143.752 90.7482C144.354 90.5045 144.731 89.9006 144.686 89.2525L144.629 88.4463Z" fill="#FFFF9F" stroke="#FFFF9F"/>
<path d="M93.888 104.02C94.0472 103.563 94.6989 103.576 94.839 104.04L95.073 104.813C95.261 105.435 95.8276 105.865 96.477 105.879L97.2854 105.896C97.7696 105.906 97.9581 106.529 97.5605 106.806L96.8975 107.268C96.364 107.639 96.13 108.311 96.3179 108.933L96.5509 109.706C96.691 110.17 96.1558 110.543 95.77 110.25L95.1267 109.761C94.609 109.368 93.8969 109.353 93.3634 109.724L92.6994 110.186C92.3017 110.462 91.7834 110.068 91.9426 109.611L92.2075 108.848C92.4211 108.234 92.2151 107.553 91.6974 107.16L91.0541 106.671C90.6682 106.378 90.8825 105.763 91.3668 105.773L92.1742 105.79C92.8238 105.803 93.4085 105.397 93.6221 104.783L93.888 104.02Z" fill="#FFFF9F" stroke="#FFFF9F"/>
</svg>
