<svg width="191" height="191" viewBox="0 0 191 191" fill="none" xmlns="http://www.w3.org/2000/svg">
<line x1="30.1785" y1="94.275" x2="38.097" y2="106.593" stroke="white" stroke-width="2" stroke-linecap="round"/>
<line x1="43.3218" y1="56.2877" x2="32.1097" y2="82.4494" stroke="white" stroke-width="2" stroke-linecap="round"/>
<line x1="57.2438" y1="43.633" x2="59.455" y2="42.5274" stroke="white" stroke-width="2" stroke-linecap="round"/>
<line x1="66.4099" y1="46.6972" x2="65.5193" y2="45.3613" stroke="white" stroke-width="2" stroke-linecap="round"/>
<line x1="82.3494" y1="46.3162" x2="76.1383" y2="49.4218" stroke="white" stroke-width="2" stroke-linecap="round"/>
<line x1="83.5118" y1="52.1946" x2="78.0166" y2="73.2594" stroke="white" stroke-width="2" stroke-linecap="round"/>
<line x1="95.1886" y1="44.7248" x2="116.547" y2="59.5826" stroke="white" stroke-width="2" stroke-linecap="round"/>
<line x1="127.865" y1="66.0484" x2="167.87" y2="68.9059" stroke="white" stroke-width="2" stroke-linecap="round"/>
<line x1="80.1952" y1="86.1844" x2="96.0064" y2="107.576" stroke="white" stroke-width="2" stroke-linecap="round"/>
<path d="M47.2254 40.119C47.3375 39.6478 47.9872 39.5953 48.1735 40.0424L49.6441 43.5722C49.894 44.1721 50.5019 44.5424 51.1496 44.4901L54.9614 44.1823C55.4442 44.1433 55.6949 44.7456 55.3273 45.0609L52.4245 47.5507C51.9313 47.9738 51.7665 48.6661 52.0164 49.2659L53.4869 52.7957C53.6732 53.2428 53.1784 53.6677 52.7649 53.4154L49.5003 51.4237C48.9455 51.0853 48.2356 51.1426 47.7423 51.5657L44.8396 54.0555C44.4719 54.3708 43.9154 54.0309 44.0275 53.5597L44.9125 49.8397C45.0629 49.2075 44.7891 48.5506 44.2344 48.2122L40.9697 46.2205C40.5562 45.9683 40.7071 45.3335 41.1898 45.2945L45.0017 44.9866C45.6494 44.9343 46.19 44.4712 46.3404 43.839L47.2254 40.119Z" fill="white" stroke="white"/>
<path d="M86.2705 36.3228C86.3199 35.841 86.9571 35.7038 87.2004 36.1227L89.1209 39.4293C89.4473 39.9912 90.0985 40.2787 90.7338 40.1419L94.4724 39.3371C94.9459 39.2352 95.2734 39.7995 94.9503 40.1602L92.3989 43.009C91.9654 43.4931 91.8927 44.201 92.2191 44.7629L94.1396 48.0695C94.3829 48.4884 93.9481 48.9744 93.5051 48.7785L90.0075 47.2319C89.4131 46.9691 88.7169 47.119 88.2833 47.6031L85.732 50.4518C85.4088 50.8126 84.8125 50.5486 84.8619 50.0668L85.2517 46.2628C85.318 45.6164 84.9604 45.0011 84.3661 44.7383L80.8686 43.1917C80.4256 42.9958 80.4919 42.3467 80.9654 42.2448L84.704 41.44C85.3393 41.3032 85.8145 40.7733 85.8807 40.1268L86.2705 36.3228Z" fill="white" stroke="white"/>
<path d="M73.821 71.0566C73.9707 70.596 74.6225 70.596 74.7722 71.0566L75.9538 74.6933C76.1546 75.3114 76.7308 75.7295 77.3806 75.7295H81.2048C81.6892 75.7295 81.8906 76.3501 81.4988 76.6348L78.405 78.8828C77.8793 79.2648 77.6593 79.9416 77.8601 80.5596L79.0417 84.1963C79.1914 84.6569 78.664 85.0405 78.2722 84.7558L75.1784 82.5078C74.6527 82.1258 73.9405 82.1258 73.4148 82.5078L70.321 84.7558C69.9292 85.0405 69.4018 84.6569 69.5515 84.1963L70.7331 80.5596C70.9339 79.9416 70.7139 79.2648 70.1882 78.8828L67.0945 76.6348C66.7026 76.35 66.904 75.7295 67.3884 75.7295H71.2126C71.8625 75.7295 72.4386 75.3114 72.6394 74.6933L73.821 71.0566Z" fill="white" stroke="white"/>
<path d="M27.4482 81.2749C27.5095 80.7944 28.1499 80.6731 28.3827 81.0978L30.2208 84.4509C30.5332 85.0207 31.1771 85.3243 31.8155 85.2033L35.5729 84.4912C36.0488 84.401 36.3622 84.9732 36.0302 85.3259L33.4092 88.1107C32.9638 88.5839 32.8736 89.2898 33.186 89.8596L35.0241 93.2127C35.2569 93.6374 34.8102 94.1125 34.3722 93.9058L30.914 92.2731C30.3263 91.9957 29.6266 92.1283 29.1812 92.6015L26.5601 95.3862C26.2281 95.7389 25.6385 95.4602 25.6998 94.9797L26.1837 91.1866C26.2659 90.542 25.9237 89.918 25.3361 89.6406L21.8778 88.0079C21.4398 87.8012 21.5222 87.1539 21.9981 87.0637L25.7554 86.3517C26.3939 86.2307 26.8821 85.7126 26.9643 85.068L27.4482 81.2749Z" fill="white" stroke="white"/>
<path d="M27.7792 117.481C27.795 116.997 28.4212 116.815 28.693 117.216L30.8383 120.382C31.2029 120.92 31.8724 121.161 32.4967 120.981L36.1704 119.919C36.6357 119.784 37.0016 120.324 36.7043 120.707L34.3567 123.726C33.9578 124.238 33.9344 124.95 34.299 125.488L36.4443 128.653C36.7161 129.054 36.316 129.569 35.8605 129.404L32.2641 128.104C31.6529 127.883 30.9687 128.081 30.5698 128.594L28.2223 131.613C27.9249 131.995 27.3117 131.773 27.3276 131.289L27.4525 127.467C27.4738 126.818 27.0744 126.229 26.4633 126.008L22.8668 124.708C22.4113 124.543 22.4324 123.891 22.8977 123.756L26.5715 122.694C27.1957 122.514 27.633 121.952 27.6543 121.302L27.7792 117.481Z" fill="white" stroke="white"/>
<path d="M120.135 57.1327C120.241 56.6601 120.89 56.5997 121.082 57.0445L122.596 60.556C122.853 61.1527 123.466 61.5156 124.113 61.4553L127.92 61.1007C128.403 61.0557 128.661 61.655 128.297 61.9748L125.425 64.5C124.937 64.9291 124.781 65.6234 125.038 66.2201L126.552 69.7316C126.744 70.1764 126.254 70.6072 125.838 70.3601L122.549 68.4086C121.99 68.0771 121.281 68.1431 120.793 68.5722L117.921 71.0975C117.557 71.4173 116.996 71.0842 117.103 70.6117L117.942 66.881C118.084 66.2471 117.803 65.5936 117.244 65.262L113.955 63.3106C113.538 63.0634 113.681 62.4269 114.164 62.382L117.971 62.0273C118.618 61.967 119.153 61.4973 119.296 60.8633L120.135 57.1327Z" fill="white" stroke="white"/>
<path d="M174.941 63.4855C174.948 63.0012 175.57 62.8081 175.85 63.2038L177.637 65.7344C178.012 66.265 178.686 66.4938 179.306 66.3014L182.265 65.3839C182.728 65.2404 183.103 65.7725 182.814 66.1605L180.96 68.6423C180.571 69.1629 180.561 69.8744 180.936 70.4052L182.723 72.9358C183.002 73.3315 182.612 73.8531 182.153 73.6973L179.22 72.7009C178.605 72.4918 177.925 72.7028 177.536 73.2233L175.682 75.7042C175.392 76.0922 174.775 75.8829 174.781 75.3986L174.823 72.301C174.831 71.6513 174.421 71.07 173.805 70.8609L170.873 69.8636C170.414 69.7078 170.423 69.0563 170.885 68.9128L173.844 67.9953C174.465 67.8028 174.891 67.2327 174.9 66.583L174.941 63.4855Z" fill="white" stroke="white"/>
<path d="M67.3914 49.1867C67.3582 48.7035 67.9628 48.4599 68.2737 48.8313L69.7955 50.6493C70.2127 51.1475 70.9033 51.3201 71.5061 51.0774L73.7055 50.1916C74.1548 50.0106 74.5735 50.511 74.3163 50.9215L73.0579 52.9307C72.7129 53.4814 72.7617 54.1913 73.1788 54.6896L74.701 56.5085C75.0116 56.8799 74.6656 57.4318 74.1959 57.3141L71.8961 56.738C71.2658 56.5801 70.6051 56.8462 70.2602 57.3969L69.0017 59.4061C68.7446 59.8165 68.1127 59.6584 68.0792 59.1754L67.9158 56.8093C67.8712 56.161 67.4143 55.6154 66.7839 55.4575L64.4842 54.8814C64.0144 54.7637 63.9694 54.1128 64.4187 53.9319L66.6181 53.046C67.2208 52.8032 67.5991 52.2002 67.5544 51.5519L67.3914 49.1867Z" fill="white" stroke="white"/>
<path d="M98.3843 105.746C98.3801 105.262 98.9982 105.055 99.2863 105.444L100.697 107.35C101.083 107.872 101.762 108.086 102.378 107.88L104.627 107.127C105.086 106.973 105.474 107.498 105.193 107.892L103.817 109.823C103.439 110.352 103.446 111.063 103.832 111.586L105.243 113.492C105.53 113.882 105.152 114.412 104.69 114.266L102.429 113.554C101.809 113.358 101.134 113.584 100.757 114.113L99.3802 116.044C99.099 116.438 98.4777 116.242 98.4731 115.758L98.4516 113.387C98.4458 112.737 98.0224 112.165 97.4027 111.969L95.1416 111.257C94.6796 111.111 94.6736 110.459 95.1329 110.305L97.3814 109.552C97.9976 109.346 98.4113 108.767 98.4055 108.117L98.3843 105.746Z" fill="white" stroke="white"/>
<path d="M40.821 106.057C40.9707 105.596 41.6225 105.596 41.7722 106.057L42.5046 108.312C42.7054 108.929 43.2816 109.348 43.9314 109.348H46.3025C46.7868 109.348 46.9883 109.968 46.5964 110.253L44.6784 111.646C44.1527 112.028 43.9328 112.705 44.1335 113.323L44.8659 115.579C45.0153 116.04 44.4882 116.422 44.0964 116.138L42.1784 114.744C41.6527 114.362 40.9405 114.362 40.4148 114.744L38.4968 116.138C38.105 116.422 37.5779 116.04 37.7273 115.579L38.4597 113.323C38.6605 112.705 38.4405 112.028 37.9148 111.646L35.9968 110.253C35.6049 109.968 35.8064 109.348 36.2907 109.348H38.6618C39.3116 109.348 39.8878 108.929 40.0886 108.312L40.821 106.057Z" fill="white" stroke="white"/>
<path d="M11.5304 146.331C11.5648 145.847 12.1974 145.69 12.4536 146.102L13.7074 148.114C14.0511 148.665 14.711 148.932 15.3417 148.776L17.643 148.205C18.1132 148.088 18.4581 148.642 18.1463 149.013L16.6203 150.827C16.2021 151.324 16.1515 152.034 16.4952 152.586L17.7492 154.599C18.0051 155.01 17.5856 155.508 17.1369 155.326L14.9398 154.436C14.3375 154.191 13.6463 154.363 13.228 154.86L11.702 156.675C11.3903 157.045 10.7865 156.801 10.8206 156.318L10.9883 153.952C11.0343 153.304 10.6579 152.7 10.0557 152.456L7.85857 151.565C7.40969 151.383 7.45578 150.732 7.92589 150.616L10.2272 150.045C10.8579 149.888 11.3164 149.344 11.3625 148.695L11.5304 146.331Z" fill="white" stroke="white"/>
<path d="M63.1095 36.1926C63.1824 35.7137 63.8255 35.6078 64.0481 36.0381L64.8032 37.4983C65.1017 38.0754 65.7383 38.3952 66.3795 38.2898L68.0031 38.0224C68.4807 37.9441 68.78 38.5224 68.4401 38.8669L67.2838 40.0371C66.8272 40.4994 66.7201 41.203 67.0185 41.7802L67.7738 43.2413C67.9963 43.6715 67.5383 44.1357 67.1054 43.9185L65.6359 43.1806C65.0551 42.8892 64.3524 43.0049 63.8957 43.4672L62.7404 44.6373C62.4 44.9818 61.8173 44.689 61.8901 44.2101L62.137 42.584C62.2346 41.9416 61.9076 41.3095 61.3269 41.018L59.8564 40.2804C59.424 40.063 59.5221 39.4193 59.9996 39.3403L61.6232 39.073C62.2643 38.9673 62.7648 38.4602 62.8625 37.8178L63.1095 36.1926Z" fill="white" stroke="white"/>
<line x1="25.1284" y1="129.349" x2="15.1713" y2="145.643" stroke="white" stroke-width="2" stroke-linecap="round"/>
<line x1="35.9246" y1="114.383" x2="32.205" y2="118.847" stroke="white" stroke-width="2" stroke-linecap="round"/>
</svg>
