<svg width="191" height="191" viewBox="0 0 191 191" fill="none" xmlns="http://www.w3.org/2000/svg">
<path d="M48.6873 64.6893C49.0772 64.4019 49.6072 64.7813 49.4607 65.243L48.9596 66.8238C48.7632 67.4431 48.9877 68.118 49.5158 68.4963L50.865 69.4621C51.2588 69.744 51.0614 70.3658 50.577 70.3693L48.9187 70.3807C48.2689 70.3853 47.6961 70.8076 47.4996 71.4269L46.9979 73.0086C46.8513 73.4701 46.1999 73.4744 46.047 73.0149L45.5232 71.4413C45.3181 70.8247 44.739 70.4102 44.0891 70.4147L42.4308 70.4262C41.9464 70.4296 41.7404 69.8115 42.1302 69.524L43.4657 68.5393C43.9884 68.1536 44.2036 67.4751 43.9986 66.8586L43.4741 65.2846C43.3213 64.8251 43.8462 64.4381 44.24 64.7196L45.5891 65.6853C46.1176 66.0636 46.8294 66.059 47.3524 65.6733L48.6873 64.6893Z" fill="#FFFF9F" stroke="#FFFF9F"/>
<path d="M60.4768 134.658C60.9612 134.657 61.164 135.277 60.7728 135.562L59.4336 136.54C58.9089 136.923 58.6907 137.6 58.8927 138.218L59.4091 139.794C59.5599 140.255 59.0328 140.639 58.6403 140.356L57.2965 139.384C56.7699 139.003 56.0582 139.005 55.5334 139.388L54.1932 140.366C53.8021 140.652 53.2743 140.27 53.4229 139.809L53.9314 138.23C54.1308 137.612 53.9091 136.935 53.3825 136.554L52.0387 135.582C51.6462 135.299 51.8457 134.678 52.33 134.677L53.9893 134.673C54.6389 134.672 55.2138 134.252 55.4132 133.634L55.9215 132.054C56.0701 131.593 56.7223 131.592 56.8733 132.052L57.3897 133.628C57.5919 134.246 58.1686 134.663 58.8184 134.662L60.4768 134.658Z" fill="#FFFF9F" stroke="#FFFF9F"/>
<path d="M148.471 81.0836C148.803 80.7316 149.392 81.0112 149.33 81.4915L149.159 82.8094C149.076 83.4536 149.417 84.0787 150.004 84.3573L151.203 84.927C151.641 85.1347 151.557 85.7808 151.081 85.8699L149.775 86.1145C149.136 86.2342 148.647 86.7513 148.563 87.3955L148.393 88.7134C148.33 89.1936 147.69 89.3138 147.458 88.8888L146.821 87.7219C146.51 87.1515 145.868 86.8464 145.229 86.9659L143.923 87.2104C143.447 87.2994 143.135 86.7268 143.468 86.3749L144.38 85.4093C144.827 84.9371 144.918 84.2314 144.607 83.6609L143.972 82.4944C143.74 82.0691 144.188 81.5958 144.625 81.8036L145.825 82.3732C146.412 82.6519 147.112 82.5211 147.558 82.0492L148.471 81.0836Z" fill="#FFFF9F" stroke="#FFFF9F"/>
<path d="M124.095 96.5958C124.153 96.1149 124.792 95.9893 125.028 96.4125L125.675 97.5733C125.991 98.1407 126.637 98.4402 127.275 98.315L128.578 98.0591C129.053 97.9658 129.37 98.5349 129.04 98.8898L128.136 99.8636C127.694 100.34 127.608 101.046 127.924 101.614L128.571 102.775C128.807 103.198 128.363 103.676 127.924 103.472L126.718 102.913C126.129 102.639 125.431 102.776 124.989 103.252L124.084 104.226C123.755 104.581 123.163 104.306 123.221 103.825L123.38 102.506C123.458 101.861 123.112 101.239 122.522 100.966L121.318 100.406C120.878 100.203 120.957 99.5557 121.432 99.4624L122.735 99.2065C123.373 99.0813 123.857 98.5597 123.936 97.9148L124.095 96.5958Z" fill="#FFFF9F" stroke="#FFFF9F"/>
<path d="M87.5764 73.4723C87.6936 73.0023 88.3438 72.9569 88.5253 73.4059L89.0236 74.6378C89.2671 75.2401 89.8711 75.6172 90.5191 75.5719L91.844 75.4792C92.3272 75.4454 92.5714 76.0495 92.2004 76.3608L91.1823 77.2152C90.6848 77.6329 90.5125 78.3235 90.7557 78.9259L91.254 80.1578C91.4354 80.6068 90.9361 81.0261 90.5254 80.7697L89.3983 80.0654C88.8473 79.7211 88.1377 79.7708 87.6399 80.1883L86.6219 81.0427C86.2508 81.3539 85.698 81.0081 85.8152 80.5382L86.1361 79.249C86.2933 78.6185 86.0266 77.9587 85.4755 77.6143L84.3494 76.91C83.9387 76.6533 84.0964 76.0212 84.5796 75.9874L85.9044 75.8947C86.5525 75.8493 87.0981 75.3918 87.2554 74.7615L87.5764 73.4723Z" fill="#FFFF9F" stroke="#FFFF9F"/>
<path d="M73.0088 56.4275C73.4538 56.2361 73.8837 56.7261 73.6362 57.1424L72.9576 58.2849C72.6258 58.8434 72.6913 59.5524 73.1198 60.0407L73.9958 61.039C74.3153 61.4031 73.9824 61.9632 73.51 61.8564L72.2136 61.5635C71.5799 61.4206 70.9259 61.7016 70.5939 62.2599L69.9152 63.4024C69.6677 63.8187 69.0317 63.6752 68.9871 63.1931L68.8651 61.8696C68.8054 61.2227 68.3362 60.688 67.7025 60.5447L66.4061 60.2519C65.9337 60.145 65.8742 59.4957 66.3191 59.3044L67.5395 58.7792C68.1364 58.5225 68.5 57.9107 68.4404 57.2636L68.319 55.9409C68.2746 55.4586 68.8732 55.2013 69.1926 55.5654L70.0686 56.5637C70.4971 57.052 71.1916 57.2091 71.7885 56.9527L73.0088 56.4275Z" fill="#FFFF9F" stroke="#FFFF9F"/>
<path d="M83.2722 48.2596C83.384 47.7883 84.0337 47.7354 84.2202 48.1825L84.5474 48.9651C84.7977 49.5649 85.4059 49.9359 86.0536 49.8832L86.8994 49.8144C87.3822 49.7751 87.6332 50.3764 87.2657 50.6919L86.6219 51.2449C86.1289 51.6682 85.9645 52.3606 86.2147 52.9603L86.541 53.7441C86.7275 54.1909 86.2339 54.6155 85.8203 54.3641L85.0946 53.9225C84.5397 53.5844 83.8308 53.6421 83.3378 54.0653L82.693 54.6185C82.3255 54.9336 81.7688 54.5943 81.8806 54.1231L82.077 53.2969C82.2269 52.6647 81.9528 52.0078 81.3979 51.6698L80.6732 51.2281C80.2596 50.9761 80.4101 50.3422 80.8929 50.3029L81.7387 50.2341C82.3864 50.1814 82.9267 49.717 83.0767 49.0848L83.2722 48.2596Z" fill="#FFFF9F" stroke="#FFFF9F"/>
<path d="M71.076 36.6297C71.1878 36.1584 71.8375 36.1056 72.024 36.5526L72.3512 37.3353C72.6015 37.935 73.2097 38.306 73.8574 38.2533L74.7032 38.1845C75.186 38.1452 75.437 38.7465 75.0695 39.062L74.4257 39.615C73.9327 40.0383 73.7683 40.7308 74.0185 41.3304L74.3448 42.1142C74.5312 42.561 74.0377 42.9856 73.6241 42.7342L72.8984 42.2926C72.3435 41.9545 71.6346 42.0122 71.1415 42.4355L70.4968 42.9886C70.1293 43.3037 69.5726 42.9644 69.6844 42.4932L69.8808 41.667C70.0307 41.0348 69.7566 40.378 69.2017 40.0399L68.477 39.5982C68.0633 39.3462 68.2139 38.7123 68.6967 38.673L69.5425 38.6042C70.1902 38.5515 70.7304 38.0871 70.8805 37.4549L71.076 36.6297Z" fill="#FFFF9F" stroke="#FFFF9F"/>
<path d="M135.593 109.779C135.632 109.296 136.267 109.146 136.518 109.56L136.959 110.285C137.297 110.84 137.954 111.115 138.586 110.966L139.412 110.771C139.884 110.659 140.222 111.216 139.906 111.583L139.353 112.227C138.929 112.719 138.871 113.429 139.208 113.984L139.648 114.71C139.9 115.123 139.476 115.617 139.029 115.431L138.245 115.103C137.646 114.852 136.954 115.016 136.53 115.509L135.976 116.152C135.66 116.519 135.058 116.267 135.098 115.785L135.168 114.938C135.221 114.291 134.851 113.683 134.252 113.432L133.469 113.104C133.022 112.917 133.076 112.268 133.547 112.156L134.373 111.961C135.006 111.812 135.47 111.271 135.523 110.624L135.593 109.779Z" fill="#FFFF9F" stroke="#FFFF9F"/>
<path d="M83.3014 137.891C83.6849 137.595 84.2231 137.963 84.0867 138.428L83.8485 139.242C83.6656 139.865 83.9048 140.536 84.4413 140.903L85.142 141.382C85.5419 141.655 85.3586 142.28 84.8744 142.294L84.0261 142.319C83.3766 142.338 82.8131 142.773 82.6301 143.396L82.3905 144.21C82.2542 144.675 81.6035 144.694 81.4403 144.239L81.1542 143.439C80.9357 142.827 80.3484 142.426 79.6989 142.444L78.8497 142.468C78.3658 142.482 78.1467 141.868 78.5301 141.572L79.2026 141.054C79.717 140.657 79.9173 139.974 79.6988 139.362L79.4135 138.562C79.2507 138.106 79.7666 137.708 80.1665 137.982L80.8671 138.461C81.4036 138.827 82.1157 138.806 82.6302 138.409L83.3014 137.891Z" fill="#FFFF9F" stroke="#FFFF9F"/>
<path d="M123.076 64.6297C123.188 64.1584 123.837 64.1056 124.024 64.5526L124.351 65.3353C124.601 65.935 125.21 66.306 125.857 66.2533L126.703 66.1845C127.186 66.1452 127.437 66.7465 127.069 67.062L126.426 67.615C125.933 68.0383 125.768 68.7308 126.018 69.3304L126.345 70.1142C126.531 70.561 126.038 70.9856 125.624 70.7342L124.898 70.2926C124.344 69.9545 123.635 70.0122 123.142 70.4355L122.497 70.9886C122.129 71.3037 121.573 70.9644 121.684 70.4932L121.881 69.667C122.031 69.0348 121.757 68.378 121.202 68.0399L120.477 67.5982C120.063 67.3462 120.214 66.7123 120.697 66.673L121.543 66.6042C122.19 66.5515 122.73 66.0871 122.881 65.4549L123.076 64.6297Z" fill="#FFFF9F" stroke="#FFFF9F"/>
<path d="M96.5007 63.5614C96.6719 63.1083 97.323 63.139 97.4508 63.6062L97.6753 64.4243C97.8468 65.0511 98.4025 65.4969 99.0516 65.5275L99.8993 65.5674C100.383 65.5902 100.555 66.2186 100.15 66.4845L99.4411 66.9507C98.898 67.3074 98.6464 67.9732 98.8178 68.5999L99.0412 69.419C99.169 69.886 98.6252 70.244 98.2472 69.9417L97.5839 69.4109C97.0768 69.0046 96.3663 68.9712 95.8232 69.3279L95.113 69.794C94.7082 70.0595 94.1995 69.6518 94.3706 69.1988L94.6711 68.4045C94.9006 67.7967 94.7128 67.1102 94.2057 66.7039L93.5434 66.1731C93.1654 65.8703 93.3958 65.2609 93.8796 65.2837L94.7273 65.3236C95.3764 65.3542 95.9716 64.9627 96.2013 64.3548L96.5007 63.5614Z" fill="#FFFF9F" stroke="#FFFF9F"/>
<path d="M130.962 81.6612C131.017 81.1799 131.656 81.0496 131.894 81.4711L132.017 81.6853C132.337 82.2507 132.984 82.5463 133.621 82.4166L133.864 82.367C134.338 82.2706 134.659 82.8371 134.333 83.1943L134.166 83.3769C133.727 83.8562 133.647 84.5633 133.967 85.1287L134.089 85.3441C134.327 85.7656 133.887 86.2459 133.446 86.0452L133.221 85.9436C132.63 85.6744 131.932 85.8168 131.493 86.2961L131.327 86.4775C131 86.8348 130.406 86.5652 130.461 86.084L130.489 85.8381C130.562 85.1925 130.211 84.5733 129.62 84.3041L129.394 84.2015C128.954 84.0009 129.027 83.3536 129.502 83.2567L129.744 83.2074C130.381 83.0775 130.861 82.5517 130.935 81.9061L130.962 81.6612Z" fill="#FFFF9F" stroke="#FFFF9F"/>
<path d="M53.2506 105.697C53.3624 105.226 54.0121 105.173 54.1986 105.62L54.2945 105.847C54.5447 106.447 55.1521 106.818 55.7997 106.765L56.0469 106.745C56.5293 106.706 56.7802 107.307 56.4132 107.623L56.2254 107.784C55.7324 108.207 55.568 108.9 55.8182 109.499L55.9132 109.728C56.0997 110.175 55.6051 110.599 55.1915 110.347L54.9803 110.219C54.4253 109.881 53.7154 109.939 53.2224 110.362L53.0355 110.522C52.6681 110.838 52.1114 110.499 52.2233 110.028L52.2801 109.787C52.4301 109.155 52.1559 108.498 51.601 108.16L51.3897 108.031C50.9761 107.779 51.1267 107.145 51.6094 107.106L51.8556 107.086C52.5033 107.033 53.0436 106.569 53.1936 105.937L53.2506 105.697Z" fill="#FFFF9F" stroke="#FFFF9F"/>
<path d="M133.357 50.5073C133.658 50.1285 134.269 50.3571 134.247 50.841L134.237 51.0876C134.209 51.7367 134.6 52.3309 135.209 52.5589L135.441 52.646C135.894 52.816 135.865 53.4666 135.399 53.5959L135.16 53.6619C134.534 53.8352 134.091 54.3918 134.062 55.041L134.051 55.2881C134.029 55.772 133.401 55.9453 133.134 55.5412L132.997 55.3356C132.639 54.7935 131.972 54.5437 131.346 54.7169L131.108 54.7824C130.642 54.9115 130.282 54.3682 130.584 53.9893L130.738 53.7957C131.142 53.2874 131.174 52.5764 130.816 52.0343L130.679 51.8278C130.412 51.4237 130.818 50.9142 131.272 51.0841L131.503 51.1708C132.112 51.3987 132.798 51.2084 133.203 50.7001L133.357 50.5073Z" fill="#FFFF9F" stroke="#FFFF9F"/>
<path d="M45.2506 98.5625C45.3624 98.0913 46.0121 98.0384 46.1986 98.4854L46.2945 98.7128C46.5447 99.3124 47.1521 99.6834 47.7997 99.6309L48.0469 99.6108C48.5293 99.5719 48.7802 100.173 48.4132 100.488L48.2254 100.65C47.7324 101.073 47.568 101.765 47.8182 102.365L47.9132 102.593C48.0997 103.04 47.6051 103.464 47.1915 103.212L46.9803 103.085C46.4253 102.747 45.7154 102.804 45.2224 103.228L45.0355 103.388C44.6681 103.703 44.1114 103.365 44.2233 102.893L44.2801 102.653C44.4301 102.021 44.1559 101.364 43.601 101.026L43.3897 100.897C42.9761 100.645 43.1267 100.011 43.6094 99.9717L43.8556 99.9517C44.5033 99.899 45.0436 99.4346 45.1936 98.8023L45.2506 98.5625Z" fill="#FFFF9F" stroke="#FFFF9F"/>
<path d="M97.7179 82.597C98.0718 82.2663 98.6422 82.5817 98.5502 83.0573L98.5043 83.2997C98.381 83.9376 98.6816 84.5827 99.2501 84.8973L99.4672 85.0173C99.8905 85.2518 99.7671 85.8912 99.2868 85.9509L99.0411 85.9814C98.3962 86.0612 97.8762 86.547 97.7528 87.185L97.7056 87.4278C97.6136 87.9033 96.967 87.983 96.7618 87.5442L96.6566 87.3209C96.3814 86.7322 95.7581 86.3875 95.1132 86.4673L94.8689 86.4974C94.3882 86.5569 94.1119 85.9668 94.4658 85.6362L94.6464 85.4671C95.1211 85.0234 95.2561 84.3247 94.981 83.736L94.8762 83.5118C94.6712 83.073 95.1473 82.6283 95.5711 82.8627L95.7873 82.9823C96.356 83.2968 97.0629 83.2089 97.5378 82.7652L97.7179 82.597Z" fill="#FFFF9F" stroke="#FFFF9F"/>
<path d="M78.0041 124.644C78.0672 124.164 78.7081 124.045 78.9393 124.471L79.0579 124.687C79.3681 125.258 80.0102 125.565 80.649 125.447L80.8929 125.402C81.3688 125.314 81.6798 125.886 81.3469 126.237L81.1766 126.417C80.7294 126.888 80.6365 127.594 80.9467 128.165L81.0645 128.382C81.2957 128.808 80.8471 129.28 80.4098 129.072L80.1866 128.966C79.6 128.687 78.8998 128.817 78.4526 129.288L78.2831 129.466C77.9497 129.818 77.3614 129.538 77.4245 129.058L77.4565 128.812C77.5411 128.168 77.2013 127.543 76.6148 127.263L76.3914 127.157C75.9542 126.948 76.0392 126.302 76.5154 126.214L76.7584 126.169C77.3973 126.05 77.8873 125.533 77.972 124.889L78.0041 124.644Z" fill="#FFFF9F" stroke="#FFFF9F"/>
<path d="M108.251 69.5625C108.362 69.0913 109.012 69.0384 109.199 69.4854L109.295 69.7128C109.545 70.3124 110.152 70.6834 110.8 70.6309L111.047 70.6108C111.529 70.5719 111.78 71.1728 111.413 71.4883L111.225 71.6495C110.732 72.0729 110.568 72.7652 110.818 73.3649L110.913 73.5933C111.1 74.0403 110.605 74.4645 110.192 74.2125L109.98 74.0847C109.425 73.7466 108.715 73.8043 108.222 74.2276L108.036 74.3878C107.668 74.7034 107.111 74.3647 107.223 73.8935L107.28 73.6527C107.43 73.0205 107.156 72.3637 106.601 72.0256L106.39 71.8968C105.976 71.6448 106.127 71.011 106.609 70.9717L106.856 70.9517C107.503 70.899 108.044 70.4346 108.194 69.8023L108.251 69.5625Z" fill="#FFFF9F" stroke="#FFFF9F"/>
<path d="M79.8509 149.472C80.0714 149.041 80.715 149.143 80.7901 149.622L80.8293 149.866C80.9301 150.507 81.432 151.012 82.0735 151.115L82.3185 151.154C82.7963 151.231 82.8975 151.874 82.466 152.093L82.2454 152.205C81.6659 152.5 81.3419 153.133 81.4426 153.775L81.4807 154.02C81.5558 154.498 80.9746 154.793 80.6326 154.45L80.4578 154.275C79.9989 153.815 79.2956 153.703 78.7162 153.997L78.4967 154.108C78.0648 154.328 77.6044 153.866 77.8249 153.435L77.9373 153.215C78.2331 152.636 78.1226 151.933 77.6639 151.473L77.4891 151.298C77.1472 150.955 77.4439 150.375 77.9221 150.451L78.1661 150.49C78.8078 150.593 79.4428 150.27 79.7387 149.691L79.8509 149.472Z" fill="#FFFF9F" stroke="#FFFF9F"/>
<line x1="51.1316" y1="105.248" x2="49.3785" y2="104.05" stroke="#FFFF9F" stroke-width="2" stroke-linecap="round"/>
<line x1="93.295" y1="82.1333" x2="92.6549" y2="81.6074" stroke="#FFFF9F" stroke-width="2" stroke-linecap="round"/>
<line x1="80.9539" y1="147.319" x2="81.247" y2="146.363" stroke="#FFFF9F" stroke-width="2" stroke-linecap="round"/>
<line x1="46.3071" y1="75.7277" x2="45.7446" y2="95.7425" stroke="#FFFF9F" stroke-width="2" stroke-linecap="round"/>
<line x1="66.2424" y1="62.5401" x2="51.1516" y2="66.9432" stroke="#FFFF9F" stroke-width="2" stroke-linecap="round"/>
<line x1="85.2041" y1="73.6386" x2="75.5555" y2="63.1129" stroke="#FFFF9F" stroke-width="2" stroke-linecap="round"/>
<line x1="87.3367" y1="71.1723" x2="84.5303" y2="55.9649" stroke="#FFFF9F" stroke-width="2" stroke-linecap="round"/>
<line x1="119.502" y1="69.8129" x2="113.118" y2="72.5459" stroke="#FFFF9F" stroke-width="2" stroke-linecap="round"/>
<line x1="105.667" y1="76.1133" x2="100.13" y2="81.2703" stroke="#FFFF9F" stroke-width="2" stroke-linecap="round"/>
<line x1="92.6838" y1="71.4244" x2="90.963" y2="73.4068" stroke="#FFFF9F" stroke-width="2" stroke-linecap="round"/>
<line x1="104.292" y1="70.2507" x2="100.865" y2="68.539" stroke="#FFFF9F" stroke-width="2" stroke-linecap="round"/>
<line x1="131.149" y1="56.8953" x2="126.012" y2="64.0614" stroke="#FFFF9F" stroke-width="2" stroke-linecap="round"/>
<line x1="127.237" y1="72.2077" x2="130.425" y2="79.3801" stroke="#FFFF9F" stroke-width="2" stroke-linecap="round"/>
<line x1="130.061" y1="88.3697" x2="127.197" y2="96.3093" stroke="#FFFF9F" stroke-width="2" stroke-linecap="round"/>
<line x1="129.62" y1="104.875" x2="133.674" y2="110.087" stroke="#FFFF9F" stroke-width="2" stroke-linecap="round"/>
<line x1="142.317" y1="84.4" x2="136.317" y2="84.4" stroke="#FFFF9F" stroke-width="2" stroke-linecap="round"/>
<line x1="80.6527" y1="48.1745" x2="76.3027" y2="44.3227" stroke="#FFFF9F" stroke-width="2" stroke-linecap="round"/>
<line x1="54.5579" y1="112.523" x2="55.8885" y2="129.521" stroke="#FFFF9F" stroke-width="2" stroke-linecap="round"/>
<line x1="77.4578" y1="139.823" x2="61.0072" y2="138.099" stroke="#FFFF9F" stroke-width="2" stroke-linecap="round"/>
<line x1="75.4388" y1="128.916" x2="62.7285" y2="134.32" stroke="#FFFF9F" stroke-width="2" stroke-linecap="round"/>
</svg>
