<svg width="188" height="191" viewBox="0 0 188 191" fill="none" xmlns="http://www.w3.org/2000/svg">
<path d="M139.981 125.34C140.199 124.908 140.843 125.007 140.921 125.485L141.36 128.179C141.465 128.821 141.971 129.321 142.613 129.42L145.312 129.835C145.791 129.908 145.896 130.552 145.465 130.774L143.038 132.025C142.46 132.322 142.14 132.959 142.245 133.6L142.684 136.295C142.762 136.773 142.183 137.072 141.839 136.731L139.899 134.809C139.437 134.351 138.734 134.243 138.156 134.541L135.729 135.792C135.298 136.014 134.835 135.555 135.053 135.122L136.281 132.684C136.574 132.104 136.459 131.4 135.998 130.943L134.057 129.021C133.713 128.68 134.007 128.098 134.485 128.171L137.185 128.586C137.827 128.685 138.46 128.359 138.752 127.779L139.981 125.34Z" fill="#FFFF9F" stroke="#FFFF9F"/>
<path d="M44.0787 132.422C44.5402 132.275 44.9204 132.805 44.6334 133.195L43.016 135.395C42.631 135.918 42.6273 136.63 43.0062 137.158L44.5985 139.376C44.8809 139.77 44.4943 140.295 44.0345 140.143L41.4429 139.284C40.826 139.08 40.1472 139.296 39.7622 139.82L38.1447 142.019C37.8578 142.41 37.2387 142.205 37.2414 141.721L37.2575 138.99C37.2612 138.34 36.8459 137.761 36.229 137.557L33.6366 136.699C33.1769 136.546 33.181 135.894 33.6425 135.747L36.244 134.919C36.8632 134.721 37.2854 134.147 37.2892 133.498L37.3039 130.767C37.3068 130.282 37.9282 130.084 38.2107 130.477L39.8035 132.696C40.1825 133.224 40.8581 133.449 41.4773 133.251L44.0787 132.422Z" fill="#FFFF9F" stroke="#FFFF9F"/>
<path d="M118.847 86.1659C119.064 85.7334 119.709 85.8324 119.787 86.3104L120.093 88.1833C120.197 88.8242 120.703 89.3251 121.345 89.4239L123.221 89.7123C123.699 89.7861 123.804 90.4287 123.374 90.6507L121.687 91.5199C121.11 91.8176 120.789 92.454 120.894 93.0954L121.199 94.9681C121.277 95.4459 120.698 95.7442 120.354 95.4034L119.006 94.0679C118.544 93.6105 117.84 93.5024 117.262 93.8L115.576 94.6692C115.145 94.8907 114.683 94.4325 114.9 94.0002L115.754 92.3056C116.047 91.7252 115.932 91.0219 115.47 90.5645L114.122 89.2291C113.778 88.8882 114.072 88.3064 114.55 88.3799L116.426 88.6681C117.068 88.7668 117.701 88.4409 117.993 87.8607L118.847 86.1659Z" fill="#FFFF9F" stroke="#FFFF9F"/>
<path d="M75.346 96.299C75.7815 96.0871 76.2339 96.5564 76.006 96.9839L75.1139 98.6588C74.8086 99.232 74.9066 99.9366 75.3572 100.404L76.6746 101.771C77.0102 102.12 76.704 102.695 76.2275 102.611L74.3591 102.279C73.7193 102.166 73.0786 102.477 72.773 103.051L71.8801 104.725C71.6521 105.152 71.0108 105.038 70.9439 104.559L70.6816 102.679C70.5918 102.036 70.0976 101.523 69.4578 101.41L67.5894 101.078C67.1129 100.993 67.0227 100.348 67.4577 100.136L69.1644 99.3066C69.7487 99.0223 70.0841 98.3936 69.9943 97.75L69.732 95.8707C69.6651 95.391 70.251 95.1061 70.5871 95.4549L71.9038 96.8211C72.3547 97.2889 73.0556 97.4135 73.6399 97.1294L75.346 96.299Z" fill="#FFFF9F" stroke="#FFFF9F"/>
<path d="M136.498 48.1659C136.716 47.7334 137.36 47.8324 137.438 48.3104L137.744 50.1833C137.849 50.8242 138.354 51.3251 138.996 51.4239L140.873 51.7123C141.351 51.7861 141.456 52.4287 141.026 52.6507L139.339 53.5199C138.761 53.8176 138.441 54.454 138.546 55.0954L138.851 56.9681C138.928 57.4459 138.349 57.7442 138.005 57.4034L136.657 56.0679C136.196 55.6105 135.492 55.5024 134.914 55.8L133.227 56.6692C132.797 56.8907 132.334 56.4325 132.552 56.0002L133.406 54.3056C133.698 53.7252 133.584 53.0219 133.122 52.5645L131.774 51.2291C131.43 50.8882 131.723 50.3064 132.202 50.3799L134.077 50.6681C134.719 50.7668 135.352 50.4409 135.645 49.8607L136.498 48.1659Z" fill="#FFFF9F" stroke="#FFFF9F"/>
<path d="M137.174 102.116C137.392 101.684 138.036 101.783 138.114 102.261L138.381 103.897C138.486 104.538 138.991 105.039 139.633 105.138L141.273 105.39C141.752 105.463 141.857 106.107 141.426 106.329L139.952 107.089C139.374 107.387 139.054 108.022 139.158 108.663L139.426 110.301C139.503 110.779 138.924 111.077 138.58 110.736L137.402 109.569C136.94 109.112 136.236 109.004 135.659 109.301L134.184 110.061C133.754 110.283 133.291 109.824 133.509 109.392L134.255 107.91C134.547 107.33 134.433 106.627 133.971 106.17L132.792 105.003C132.448 104.662 132.742 104.079 133.22 104.153L134.86 104.405C135.502 104.503 136.135 104.177 136.428 103.597L137.174 102.116Z" fill="#FFFF9F" stroke="#FFFF9F"/>
<path d="M74.394 123.137C74.5436 122.676 75.1954 122.676 75.3451 123.137L75.858 124.714C76.0589 125.332 76.6343 125.75 77.284 125.75L78.9431 125.75C79.4275 125.75 79.629 126.37 79.2372 126.655L77.8955 127.63C77.3699 128.012 77.1501 128.688 77.3508 129.306L77.8637 130.884C78.0132 131.345 77.4861 131.728 77.0943 131.443L75.7523 130.469C75.2266 130.087 74.5143 130.087 73.9887 130.469L72.647 131.444C72.2552 131.728 71.7278 131.346 71.8774 130.885L72.3899 129.307C72.5904 128.689 72.3703 128.012 71.8447 127.63L70.5018 126.656C70.1102 126.371 70.3116 125.751 70.7957 125.751L72.4549 125.75C73.1047 125.75 73.6807 125.332 73.8815 124.714L74.394 123.137Z" fill="#FFFF9F" stroke="#FFFF9F"/>
<path d="M150.801 61.2097C151.087 60.8186 151.706 61.0218 151.705 61.5061L151.701 63.1645C151.699 63.8142 152.115 64.3908 152.732 64.5934L154.309 65.1105C154.769 65.2614 154.767 65.9139 154.306 66.0623L152.727 66.5702C152.109 66.7692 151.689 67.3439 151.687 67.9936L151.682 69.6529C151.681 70.1371 151.061 70.3364 150.777 69.9438L149.806 68.5996C149.425 68.0728 148.749 67.8508 148.13 68.0499L146.551 68.5578C146.09 68.7062 145.708 68.1782 145.994 67.7872L146.973 66.4474C147.356 65.9229 147.358 65.211 146.978 64.6844L146.006 63.3398C145.722 62.9473 146.107 62.4207 146.567 62.5712L148.144 63.0883C148.761 63.2909 149.439 63.0731 149.822 62.5485L150.801 61.2097Z" fill="#FFFF9F" stroke="#FFFF9F"/>
<path d="M116.77 69.0965C116.896 68.6287 117.547 68.5948 117.72 69.047L118.183 70.255C118.416 70.8617 119.013 71.2492 119.662 71.2155L120.955 71.1481C121.439 71.1232 121.672 71.7322 121.296 72.0368L120.289 72.8511C119.784 73.2599 119.599 73.9473 119.832 74.5539L120.296 75.7619C120.469 76.2141 119.963 76.6245 119.557 76.3608L118.472 75.6555C117.927 75.3014 117.215 75.3385 116.71 75.7473L115.704 76.5615C115.328 76.8662 114.781 76.5106 114.907 76.0428L115.243 74.7931C115.411 74.1657 115.156 73.5012 114.611 73.147L113.525 72.4418C113.119 72.178 113.288 71.5479 113.772 71.5225L115.065 71.4551C115.713 71.4211 116.266 70.9736 116.435 70.3461L116.77 69.0965Z" fill="#FFFF9F" stroke="#FFFF9F"/>
<line x1="41.3308" y1="130.863" x2="67.8427" y2="104.204" stroke="#FFFF9F" stroke-width="2" stroke-linecap="round"/>
<line x1="45.9891" y1="135.767" x2="69.0632" y2="129.307" stroke="#FFFF9F" stroke-width="2" stroke-linecap="round"/>
<line x1="82.402" y1="126.119" x2="133.415" y2="131.894" stroke="#FFFF9F" stroke-width="2" stroke-linecap="round"/>
<line x1="136.546" y1="111.662" x2="139.958" y2="122.75" stroke="#FFFF9F" stroke-width="2" stroke-linecap="round"/>
<line x1="122.701" y1="96.3438" x2="131.14" y2="103.094" stroke="#FFFF9F" stroke-width="2" stroke-linecap="round"/>
<line x1="77.1943" y1="98.915" x2="113.024" y2="92.1043" stroke="#FFFF9F" stroke-width="2" stroke-linecap="round"/>
<line x1="118.946" y1="83.1858" x2="117.919" y2="78.2197" stroke="#FFFF9F" stroke-width="2" stroke-linecap="round"/>
<line x1="144.901" y1="60.7675" x2="141.063" y2="55.395" stroke="#FFFF9F" stroke-width="2" stroke-linecap="round"/>
<line x1="120.296" y1="68.5858" x2="130.882" y2="58" stroke="#FFFF9F" stroke-width="2" stroke-linecap="round"/>
</svg>
