<svg width="191" height="191" viewBox="0 0 191 191" fill="none" xmlns="http://www.w3.org/2000/svg">
<path d="M86.8056 99.3865C86.9254 98.9172 87.5759 98.8754 87.7548 99.3255L88.7633 101.863C89.0033 102.467 89.605 102.847 90.2535 102.805L92.9784 102.63C93.4618 102.599 93.7026 103.205 93.3298 103.515L91.2282 105.258C90.7281 105.672 90.552 106.363 90.792 106.967L91.8005 109.504C91.9794 109.954 91.4777 110.371 91.0684 110.112L88.7611 108.651C88.2119 108.304 87.5012 108.349 87.001 108.764L84.8995 110.508C84.5267 110.817 83.9759 110.468 84.0957 109.999L84.7712 107.354C84.932 106.724 84.669 106.062 84.1198 105.714L81.8115 104.255C81.4025 103.996 81.5638 103.364 82.0468 103.333L84.7727 103.157C85.4211 103.116 85.9693 102.661 86.13 102.032L86.8056 99.3865Z" fill="#FFFF9F" stroke="#FFFF9F"/>
<path d="M138.714 95.4859C138.738 95.0022 139.367 94.8319 139.632 95.2375L140.7 96.8718C141.055 97.4159 141.72 97.6699 142.348 97.5001L144.232 96.9902C144.7 96.8636 145.056 97.4091 144.752 97.7863L143.527 99.3064C143.12 99.8124 143.084 100.524 143.44 101.068L144.506 102.703C144.771 103.108 144.363 103.616 143.911 103.444L142.085 102.748C141.478 102.517 140.791 102.703 140.383 103.209L139.158 104.73C138.854 105.107 138.246 104.874 138.27 104.391L138.366 102.441C138.399 101.792 138.009 101.196 137.402 100.964L135.578 100.269C135.125 100.097 135.158 99.4459 135.626 99.3194L137.51 98.8094C138.137 98.6396 138.584 98.0846 138.616 97.4356L138.714 95.4859Z" fill="#FFFF9F" stroke="#FFFF9F"/>
<path d="M125.599 104.531C125.611 104.047 126.235 103.861 126.51 104.259L127.619 105.866C127.988 106.401 128.66 106.638 129.283 106.452L131.153 105.895C131.618 105.756 131.988 106.293 131.694 106.678L130.508 108.228C130.113 108.744 130.096 109.457 130.465 109.992L131.573 111.599C131.848 111.997 131.453 112.515 130.996 112.354L129.154 111.705C128.541 111.489 127.858 111.693 127.464 112.209L126.277 113.761C125.983 114.145 125.369 113.928 125.381 113.444L125.428 111.493C125.444 110.843 125.04 110.257 124.427 110.041L122.586 109.392C122.129 109.231 122.145 108.58 122.609 108.442L124.48 107.884C125.103 107.698 125.535 107.132 125.551 106.483L125.599 104.531Z" fill="#FFFF9F" stroke="#FFFF9F"/>
<path d="M102.148 134.179C102.315 133.724 102.966 133.749 103.098 134.215L103.63 136.094C103.807 136.719 104.367 137.16 105.016 137.184L106.967 137.259C107.451 137.278 107.629 137.905 107.226 138.174L105.604 139.26C105.064 139.622 104.819 140.291 104.996 140.916L105.527 142.794C105.659 143.26 105.118 143.623 104.737 143.324L103.202 142.116C102.692 141.714 101.98 141.687 101.44 142.048L99.817 143.135C99.4146 143.404 98.9033 143.001 99.0704 142.547L99.7436 140.715C99.9679 140.105 99.774 139.419 99.2633 139.017L97.7293 137.81C97.3486 137.511 97.5736 136.899 98.0576 136.918L100.008 136.993C100.658 137.018 101.249 136.621 101.474 136.011L102.148 134.179Z" fill="#FFFF9F" stroke="#FFFF9F"/>
<path d="M116.758 122.47C116.786 121.986 117.417 121.822 117.678 122.23L118.73 123.874C119.08 124.422 119.743 124.682 120.372 124.519L122.261 124.027C122.73 123.905 123.081 124.454 122.773 124.828L121.534 126.336C121.122 126.838 121.08 127.55 121.43 128.097L122.481 129.742C122.741 130.15 122.329 130.653 121.878 130.477L120.059 129.764C119.454 129.527 118.765 129.706 118.353 130.208L117.113 131.718C116.805 132.091 116.199 131.853 116.228 131.37L116.343 129.421C116.382 128.773 115.998 128.172 115.393 127.935L113.576 127.222C113.125 127.046 113.164 126.395 113.633 126.273L115.522 125.781C116.151 125.618 116.603 125.067 116.641 124.418L116.758 122.47Z" fill="#FFFF9F" stroke="#FFFF9F"/>
<path d="M158.835 95.1865C159.064 94.76 159.706 94.8764 159.771 95.3564L160.033 97.2908C160.12 97.9347 160.612 98.45 161.251 98.566L163.172 98.9147C163.649 99.0013 163.736 99.6469 163.3 99.857L161.541 100.704C160.956 100.986 160.618 101.613 160.705 102.257L160.966 104.192C161.031 104.671 160.445 104.954 160.11 104.605L158.761 103.193C158.312 102.723 157.611 102.596 157.026 102.878L155.266 103.725C154.829 103.935 154.38 103.464 154.609 103.038L155.534 101.319C155.842 100.746 155.746 100.04 155.297 99.5705L153.949 98.1594C153.614 97.8093 153.923 97.2356 154.399 97.3222L156.32 97.6709C156.96 97.7869 157.601 97.4775 157.909 96.9053L158.835 95.1865Z" fill="#FFFF9F" stroke="#FFFF9F"/>
<path d="M51.7031 48.1775C51.921 47.7449 52.5652 47.8439 52.6432 48.322L52.9578 50.2485C53.0624 50.8899 53.5681 51.3916 54.2104 51.4903L56.14 51.7868C56.6187 51.8604 56.7237 52.5034 56.2931 52.7252L54.5581 53.6196C53.9804 53.9172 53.6601 54.5537 53.7647 55.1951L54.0783 57.1215C54.1562 57.5994 53.5778 57.8982 53.2336 57.5578L51.8463 56.1828C51.3847 55.7254 50.6807 55.6173 50.1031 55.9149L48.3669 56.81C47.9365 57.0314 47.4745 56.5726 47.6923 56.1402L48.5698 54.3968C48.8621 53.8165 48.7476 53.1132 48.286 52.6558L46.8995 51.2818C46.5554 50.9409 46.8486 50.3591 47.3274 50.4326L49.2569 50.7291C49.8992 50.8278 50.5322 50.5011 50.8246 49.9207L51.7031 48.1775Z" fill="#FFFF9F" stroke="#FFFF9F"/>
<path d="M46.2845 70.2099C46.2966 69.7256 46.9214 69.5397 47.1962 69.9386L48.3062 71.5492C48.6749 72.0843 49.3467 72.3217 49.9695 72.1363L51.8452 71.5781C52.3092 71.4404 52.6789 71.9765 52.3849 72.361L51.1948 73.9154C50.8002 74.4314 50.7822 75.143 51.1508 75.6779L52.262 77.2893C52.5364 77.688 52.1404 78.2051 51.6837 78.0441L49.8384 77.393C49.2256 77.1769 48.5429 77.3802 48.148 77.8961L46.9588 79.4502C46.6645 79.8348 46.0501 79.6183 46.0619 79.1343L46.1104 77.1779C46.1266 76.5282 45.7227 75.9423 45.1099 75.7262L43.2645 75.0751C42.8077 74.914 42.8241 74.2626 43.2883 74.1245L45.1641 73.5663C45.7868 73.3809 46.2196 72.8149 46.2358 72.1653L46.2845 70.2099Z" fill="#FFFF9F" stroke="#FFFF9F"/>
<path d="M95.5087 49.8885C95.6452 49.4238 96.2967 49.4051 96.4595 49.8613L97.117 51.7035C97.3355 52.3156 97.9234 52.718 98.5729 52.6994L100.529 52.6433C101.013 52.6298 101.232 53.243 100.849 53.5388L99.2985 54.7341C98.7842 55.131 98.5835 55.8139 98.8018 56.4258L99.4604 58.269C99.6228 58.725 99.1069 59.1226 98.7071 58.8494L97.0918 57.7448C96.5554 57.3781 95.8434 57.3986 95.3289 57.7953L93.7795 58.9906C93.396 59.2864 92.8581 58.9189 92.9943 58.4543L93.5452 56.5764C93.7282 55.9529 93.4889 55.2827 92.9525 54.9159L91.3372 53.8114C90.9373 53.538 91.1209 52.9129 91.6051 52.899L93.5613 52.843C94.2108 52.8243 94.7748 52.3889 94.9578 51.7654L95.5087 49.8885Z" fill="#FFFF9F" stroke="#FFFF9F"/>
<path d="M104.106 78.2866C104.099 77.8023 104.716 77.5917 105.007 77.9792L106.18 79.5444C106.57 80.0644 107.25 80.2749 107.865 80.0649L109.717 79.4325C110.175 79.2764 110.566 79.7973 110.288 80.1933L109.16 81.7938C108.787 82.3251 108.797 83.0368 109.187 83.5567L110.361 85.1225C110.651 85.51 110.276 86.0425 109.813 85.8998L107.943 85.3226C107.323 85.1311 106.648 85.3613 106.274 85.8926L105.148 87.4928C104.869 87.8888 104.247 87.697 104.239 87.2128L104.21 85.256C104.2 84.6063 103.773 84.0369 103.152 83.8453L101.283 83.2682C100.82 83.1254 100.81 82.4739 101.268 82.3174L103.121 81.685C103.735 81.4749 104.145 80.8922 104.136 80.2425L104.106 78.2866Z" fill="#FFFF9F" stroke="#FFFF9F"/>
<path d="M60.4338 94.1524C60.4078 93.6688 61.0161 93.4344 61.3214 93.8104L61.8612 94.4752C62.2709 94.9796 62.9591 95.1635 63.5655 94.9298L64.3656 94.6214C64.8174 94.4475 65.2281 94.953 64.965 95.3595L64.4993 96.0791C64.1461 96.6245 64.1842 97.3351 64.5938 97.8396L65.134 98.5053C65.4394 98.8813 65.0849 99.428 64.6169 99.3033L63.789 99.0833C63.1611 98.916 62.4966 99.1721 62.1434 99.7176L61.6773 100.436C61.414 100.843 60.7843 100.675 60.7583 100.192L60.712 99.3357C60.6771 98.6869 60.2284 98.1344 59.6005 97.9671L58.7724 97.7463C58.3044 97.6215 58.2696 96.971 58.7214 96.7968L59.5215 96.4884C60.1278 96.2547 60.5147 95.6565 60.4798 95.0076L60.4338 94.1524Z" fill="#FFFF9F" stroke="#FFFF9F"/>
<path d="M58.5976 71.3947C58.4217 70.9434 58.9263 70.5307 59.3338 70.7925L60.0543 71.2553C60.6011 71.6065 61.3123 71.5661 61.8153 71.1547L62.479 70.6118C62.8538 70.3054 63.4019 70.6573 63.2791 71.1256L63.0614 71.9547C62.8964 72.5832 63.1546 73.2463 63.7013 73.5975L64.4224 74.0611C64.83 74.3229 64.6641 74.953 64.1805 74.9807L63.3254 75.0305C62.6766 75.0677 62.1253 75.5186 61.9603 76.1471L61.742 76.9754C61.619 77.4439 60.9685 77.4816 60.7927 77.0303L60.4813 76.2316C60.2453 75.6261 59.6466 75.2415 58.9978 75.2787L58.1421 75.3277C57.6586 75.3554 57.4223 74.7483 57.797 74.4417L58.4607 73.8988C58.9637 73.4873 59.1443 72.7982 58.9084 72.1927L58.5976 71.3947Z" fill="#FFFF9F" stroke="#FFFF9F"/>
<path d="M30.5999 66.9499C30.6009 66.4655 31.2212 66.2653 31.5051 66.6577L32.0072 67.3515C32.3881 67.878 33.0651 68.0998 33.6835 67.9002L34.4995 67.6368C34.9603 67.4883 35.3422 68.0159 35.057 68.4071L34.5519 69.0996C34.1689 69.6246 34.1675 70.3363 34.5484 70.8627L35.0507 71.5574C35.3346 71.9499 34.9503 72.476 34.4899 72.3254L33.6756 72.0598C33.058 71.8578 32.3802 72.0765 31.9972 72.6015L31.4919 73.2931C31.2064 73.6844 30.587 73.4822 30.5879 72.9979L30.5893 72.1406C30.5906 71.4908 30.1733 70.9143 29.5557 70.7123L28.7411 70.4457C28.2808 70.2951 28.2822 69.6436 28.7431 69.4948L29.559 69.2314C30.1774 69.0318 30.597 68.456 30.5983 67.8062L30.5999 66.9499Z" fill="#FFFF9F" stroke="#FFFF9F"/>
<path d="M37.0766 85.4583C37.1511 84.9797 37.7946 84.876 38.0157 85.307L38.4065 86.069C38.7031 86.6472 39.3386 86.9693 39.9801 86.8659L40.8266 86.7294C41.3047 86.6526 41.602 87.2321 41.2607 87.5755L40.6564 88.1833C40.1981 88.644 40.0886 89.3472 40.3852 89.9254L40.7762 90.6883C40.9972 91.1193 40.5375 91.5809 40.1053 91.3622L39.3408 90.976C38.761 90.6826 38.0578 90.7959 37.5996 91.2566L36.9951 91.8635C36.6535 92.2069 36.072 91.913 36.1465 91.4344L36.278 90.5873C36.3779 89.9452 36.053 89.312 35.4732 89.0186L34.7085 88.6314C34.2765 88.4126 34.3768 87.769 34.8549 87.6919L35.7014 87.5554C36.3429 87.452 36.845 86.9466 36.9449 86.3045L37.0766 85.4583Z" fill="#FFFF9F" stroke="#FFFF9F"/>
<path d="M71.7367 60.2521C71.5878 59.7912 72.1159 59.409 72.5072 59.6945L73.1991 60.1991C73.7241 60.582 74.4365 60.5838 74.963 60.2028L75.6576 59.7001C76.0499 59.4163 76.5762 59.8001 76.4259 60.2603L76.1596 61.075C75.9577 61.6927 76.1763 62.3699 76.7013 62.7528L77.3937 63.2583C77.7851 63.5437 77.5822 64.1628 77.0978 64.1619L76.2413 64.161C75.5914 64.1598 75.0145 64.5774 74.8125 65.1951L74.5457 66.009C74.3952 66.4694 73.7436 66.4686 73.5948 66.0076L73.3311 65.1919C73.1314 64.5736 72.5564 64.1542 71.9066 64.153L71.0495 64.1513C70.5652 64.1504 70.3652 63.5304 70.7574 63.2464L71.452 62.7437C71.9784 62.3627 72.1994 61.6855 71.9998 61.0671L71.7367 60.2521Z" fill="#FFFF9F" stroke="#FFFF9F"/>
<path d="M62.9048 51.1003C62.7873 50.6304 63.3398 50.2846 63.7111 50.5957L64.3675 51.1457C64.8656 51.5631 65.5763 51.6127 66.1271 51.268L66.8539 50.8131C67.2645 50.5564 67.7638 50.9746 67.5828 51.4237L67.2624 52.2187C67.0194 52.8214 67.192 53.5118 67.69 53.9291L68.3469 54.48C68.7182 54.7911 68.4742 55.3952 67.991 55.3617L67.1364 55.3032C66.4881 55.2583 65.8844 55.6362 65.6414 56.2388L65.3204 57.033C65.1393 57.4822 64.4893 57.4376 64.3718 56.9677L64.1635 56.1361C64.0058 55.5057 63.4603 55.0487 62.8121 55.0038L61.957 54.9445C61.4739 54.911 61.316 54.279 61.7264 54.022L62.4533 53.5671C63.0041 53.2224 63.2702 52.5615 63.1125 51.9311L62.9048 51.1003Z" fill="#FFFF9F" stroke="#FFFF9F"/>
<line x1="59.8953" y1="52.6904" x2="58.9" y2="52.5928" stroke="#FFFF9F" stroke-width="2" stroke-linecap="round"/>
<line x1="70.7634" y1="58.4027" x2="69.4314" y2="56.5984" stroke="#FFFF9F" stroke-width="2" stroke-linecap="round"/>
<line x1="71.2336" y1="66.1135" x2="64.9399" y2="72.0185" stroke="#FFFF9F" stroke-width="2" stroke-linecap="round"/>
<line x1="153.368" y1="100.716" x2="145.33" y2="100.281" stroke="#FFFF9F" stroke-width="2" stroke-linecap="round"/>
<line x1="91.1776" y1="56.4097" x2="78.1949" y2="59.2842" stroke="#FFFF9F" stroke-width="2" stroke-linecap="round"/>
<line x1="55.4024" y1="75" x2="53.4024" y2="75" stroke="#FFFF9F" stroke-width="2" stroke-linecap="round"/>
<line x1="43.9093" y1="71.7593" x2="36.8617" y2="70.1931" stroke="#FFFF9F" stroke-width="2" stroke-linecap="round"/>
<line x1="43.9631" y1="77.9818" x2="40.1726" y2="84.3722" stroke="#FFFF9F" stroke-width="2" stroke-linecap="round"/>
<line x1="49.8029" y1="79.6143" x2="59.317" y2="92.2342" stroke="#FFFF9F" stroke-width="2" stroke-linecap="round"/>
<line x1="79.1894" y1="65.124" x2="101.511" y2="80.0364" stroke="#FFFF9F" stroke-width="2" stroke-linecap="round"/>
<line x1="66.9418" y1="99.3188" x2="79.9286" y2="103.093" stroke="#FFFF9F" stroke-width="2" stroke-linecap="round"/>
<line x1="88.1432" y1="110.769" x2="99.465" y2="134.372" stroke="#FFFF9F" stroke-width="2" stroke-linecap="round"/>
<line x1="107.712" y1="87.4947" x2="123.427" y2="105.828" stroke="#FFFF9F" stroke-width="2" stroke-linecap="round"/>
<line x1="111.768" y1="82.6335" x2="136.036" y2="96.6341" stroke="#FFFF9F" stroke-width="2" stroke-linecap="round"/>
<line x1="92.8062" y1="106.829" x2="114.231" y2="123.596" stroke="#FFFF9F" stroke-width="2" stroke-linecap="round"/>
</svg>
