<svg width="191" height="180" viewBox="0 0 191 180" fill="none" xmlns="http://www.w3.org/2000/svg">
<line x1="57.1593" y1="57.1901" x2="117.19" y2="67.8407" stroke="#FFFF9F" stroke-width="2" stroke-linecap="round"/>
<line x1="132.413" y1="78.9327" x2="141.933" y2="87.5874" stroke="#FFFF9F" stroke-width="2" stroke-linecap="round"/>
<line x1="147.483" y1="99.409" x2="148.272" y2="108.42" stroke="#FFFF9F" stroke-width="2" stroke-linecap="round"/>
<path d="M41.3637 49.827C41.1524 49.3911 41.6224 48.9395 42.0495 49.168L45.4213 50.9715C45.9943 51.278 46.6994 51.1803 47.168 50.7301L49.9255 48.0804C50.2748 47.7448 50.85 48.0527 50.7647 48.5295L50.0915 52.294C49.9772 52.9337 50.2874 53.5742 50.8604 53.8806L54.2322 55.6842C54.6593 55.9127 54.5448 56.5547 54.065 56.6209L50.2766 57.1435C49.6329 57.2323 49.1194 57.7258 49.0049 58.3655L48.3318 62.13C48.2465 62.6068 47.6004 62.6956 47.3892 62.2597L45.7214 58.8187C45.438 58.234 44.8104 57.8984 44.1667 57.9872L40.3783 58.5098C39.8985 58.576 39.6138 57.989 39.963 57.6534L42.7205 55.0037C43.1891 54.5534 43.3148 53.8528 43.0314 53.268L41.3637 49.827Z" fill="#FFFF9F" stroke="#FFFF9F"/>
<path d="M119.87 63.5153C119.881 63.031 120.506 62.844 120.781 63.2424L123.552 67.2496C123.922 67.784 124.594 68.0191 125.216 67.8328L129.884 66.4347C130.348 66.2958 130.719 66.8325 130.426 67.2176L127.471 71.0926C127.077 71.6093 127.06 72.3208 127.43 72.8552L130.202 76.8621C130.477 77.2605 130.082 77.7792 129.625 77.6189L125.027 76.0062C124.414 75.7913 123.732 75.9954 123.338 76.5119L120.383 80.3868C120.09 80.772 119.474 80.5558 119.486 80.0716L119.599 75.2005C119.614 74.551 119.209 73.9658 118.596 73.7506L113.997 72.1379C113.54 71.9776 113.555 71.3253 114.019 71.1863L118.687 69.7882C119.31 69.6017 119.742 69.0359 119.757 68.3863L119.87 63.5153Z" fill="#FFFF9F" stroke="#FFFF9F"/>
<path d="M145.707 84.9551C145.813 84.4826 146.462 84.4221 146.654 84.8669L148.324 88.7404C148.581 89.3372 149.194 89.701 149.841 89.6408L154.042 89.2495C154.524 89.2047 154.782 89.8029 154.418 90.1227L151.25 92.908C150.762 93.337 150.605 94.0314 150.863 94.6281L152.533 98.5026C152.724 98.9473 152.235 99.3778 151.818 99.1311L148.19 96.9778C147.631 96.6463 146.922 96.7124 146.434 97.1414L143.266 99.9277C142.902 100.247 142.341 99.9144 142.447 99.4419L143.373 95.3256C143.516 94.6917 143.234 94.0381 142.675 93.7066L139.047 91.5543C138.631 91.3072 138.774 90.6716 139.256 90.6266L143.456 90.2354C144.103 90.1751 144.638 89.7044 144.781 89.0704L145.707 84.9551Z" fill="#FFFF9F" stroke="#FFFF9F"/>
<path d="M148.042 111.005C148.197 110.547 148.848 110.554 148.993 111.017L150.131 114.667C150.324 115.288 150.895 115.713 151.545 115.72L155.369 115.766C155.853 115.772 156.047 116.395 155.652 116.675L152.532 118.886C152.002 119.261 151.773 119.936 151.967 120.556L153.105 124.206C153.249 124.669 152.717 125.046 152.329 124.757L149.262 122.472C148.741 122.084 148.029 122.075 147.499 122.451L144.378 124.662C143.983 124.942 143.46 124.552 143.615 124.093L144.84 120.471C145.049 119.855 144.837 119.176 144.316 118.788L141.249 116.503C140.86 116.213 141.069 115.595 141.554 115.601L145.378 115.647C146.027 115.654 146.608 115.243 146.817 114.628L148.042 111.005Z" fill="#FFFF9F" stroke="#FFFF9F"/>
</svg>
