<svg width="191" height="191" viewBox="0 0 191 191" fill="none" xmlns="http://www.w3.org/2000/svg">
<path d="M104.742 145.899C104.786 145.417 105.422 145.273 105.669 145.689L107.042 147.995C107.375 148.553 108.029 148.835 108.663 148.691L111.281 148.097C111.754 147.99 112.087 148.55 111.768 148.914L109.999 150.934C109.571 151.422 109.506 152.131 109.838 152.689L111.212 154.996C111.46 155.412 111.03 155.902 110.585 155.711L108.118 154.653C107.521 154.396 106.827 154.554 106.398 155.043L104.629 157.062C104.31 157.426 103.711 157.169 103.755 156.687L103.999 154.013C104.058 153.366 103.694 152.755 103.097 152.499L100.63 151.44C100.185 151.249 100.244 150.6 100.716 150.493L103.335 149.899C103.968 149.756 104.438 149.22 104.497 148.572L104.742 145.899Z" fill="#FFFF9F" stroke="#FFFF9F"/>
<path d="M129.708 130.203C129.945 129.78 130.584 129.907 130.641 130.388L130.956 133.054C131.032 133.699 131.515 134.223 132.152 134.349L134.785 134.874C135.26 134.968 135.337 135.615 134.897 135.818L132.459 136.942C131.869 137.214 131.521 137.834 131.597 138.48L131.913 141.146C131.969 141.627 131.377 141.899 131.049 141.544L129.227 139.572C128.786 139.095 128.087 138.956 127.497 139.228L125.059 140.351C124.619 140.554 124.177 140.076 124.413 139.653L125.725 137.311C126.043 136.744 125.959 136.037 125.518 135.56L123.696 133.588C123.367 133.232 123.686 132.664 124.161 132.758L126.794 133.283C127.431 133.41 128.078 133.111 128.396 132.544L129.708 130.203Z" fill="#FFFF9F" stroke="#FFFF9F"/>
<path d="M13.9696 65.7372C13.9127 65.2562 14.5046 64.9833 14.8334 65.339L16.6551 67.3101C17.0962 67.7873 17.7949 67.9266 18.385 67.6546L20.823 66.5306C21.2628 66.3278 21.7052 66.8062 21.4685 67.2288L20.1569 69.5712C19.8395 70.1382 19.923 70.845 20.364 71.3221L22.187 73.2937C22.5154 73.6494 22.1969 74.2175 21.7221 74.1232L19.089 73.5993C18.4517 73.4726 17.8049 73.7708 17.4873 74.3377L16.1757 76.6802C15.9391 77.1027 15.3001 76.9759 15.243 76.4951L14.9267 73.8288C14.8504 73.1835 14.3672 72.661 13.7299 72.5343L11.0968 72.0104C10.6218 71.9159 10.5454 71.269 10.9851 71.0661L13.4231 69.9422C14.0132 69.6701 14.3609 69.0483 14.2846 68.403L13.9696 65.7372Z" fill="#FFFF9F" stroke="#FFFF9F"/>
<path d="M59.6469 117.51C59.9381 117.123 60.5546 117.335 60.5466 117.819L60.5018 120.503C60.4911 121.153 60.8999 121.736 61.5145 121.947L64.0536 122.819C64.5117 122.976 64.501 123.627 64.038 123.769L61.4713 124.557C60.8502 124.747 60.4223 125.316 60.4115 125.966L60.3673 128.651C60.359 129.135 59.7363 129.325 59.4581 128.929L57.9164 126.731C57.5432 126.199 56.8695 125.968 56.2483 126.159L53.6817 126.946C53.2187 127.088 52.8443 126.555 53.1352 126.168L54.7486 124.022C55.1392 123.502 55.1509 122.791 54.7777 122.259L53.236 120.061C52.9579 119.664 53.3496 119.144 53.8076 119.301L56.3467 120.173C56.9613 120.384 57.6423 120.175 58.0329 119.655L59.6469 117.51Z" fill="#FFFF9F" stroke="#FFFF9F"/>
<path d="M59.6235 80.6881C59.7564 80.2224 60.4078 80.1987 60.5741 80.6536L61.3314 82.7271C61.5546 83.3374 62.1455 83.7344 62.7948 83.7108L65.0014 83.6307C65.4853 83.6132 65.7089 84.225 65.3279 84.5238L63.5901 85.8856C63.0785 86.2864 62.8833 86.9716 63.1064 87.582L63.8637 89.6555C64.03 90.1103 63.5178 90.5117 63.1159 90.2416L61.2829 89.0094C60.7438 88.6471 60.0327 88.6729 59.5214 89.0733L57.7835 90.4351C57.4022 90.7338 56.8614 90.3705 56.9942 89.9048L57.5992 87.7819C57.7775 87.1569 57.5331 86.4876 56.9938 86.125L55.1618 84.8928C54.7604 84.6224 54.9391 83.9962 55.4227 83.9784L57.6293 83.8983C58.2786 83.8748 58.8392 83.4359 59.0175 82.8111L59.6235 80.6881Z" fill="#FFFF9F" stroke="#FFFF9F"/>
<path d="M88.9487 91.702C89.1425 91.2581 89.7912 91.3215 89.8954 91.7945L90.3696 93.9505C90.5094 94.585 91.0421 95.0573 91.6888 95.1205L93.8864 95.3352C94.3683 95.3824 94.5083 96.0185 94.091 96.2638L92.1871 97.3818C91.6267 97.7108 91.3418 98.364 91.4815 98.9986L91.9557 101.155C92.0599 101.628 91.4988 101.957 91.1365 101.636L89.4841 100.17C88.9981 99.7393 88.2899 99.6701 87.7298 99.9988L85.8259 101.117C85.4082 101.362 84.9206 100.93 85.1143 100.486L85.9969 98.4626C86.2569 97.867 86.1039 97.1711 85.6178 96.7398L83.9663 95.2744C83.6046 94.9529 83.8651 94.3561 84.3468 94.403L86.5444 94.6177C87.1911 94.6809 87.8051 94.3207 88.0652 93.7253L88.9487 91.702Z" fill="#FFFF9F" stroke="#FFFF9F"/>
<path d="M37.5102 70.7487C37.7509 70.3284 38.389 70.4616 38.4413 70.9431L38.6168 72.554C38.6871 73.2 39.1654 73.7279 39.8015 73.8608L41.3884 74.192C41.8625 74.2911 41.9331 74.9387 41.4913 75.1373L40.0129 75.8014C39.4202 76.0678 39.0663 76.6863 39.1366 77.3323L39.3121 78.9432C39.3645 79.4247 38.7699 79.6924 38.4445 79.3337L37.3554 78.1327C36.9189 77.6515 36.2224 77.5062 35.6299 77.7724L34.1513 78.4374C33.7095 78.636 33.2717 78.1527 33.5123 77.7324L34.3177 76.3263C34.6405 75.7623 34.5637 75.0539 34.1271 74.5726L33.0378 73.3725C32.7124 73.0137 33.0362 72.4484 33.5104 72.5474L35.0973 72.8787C35.7333 73.0113 36.3821 72.7187 36.7049 72.1548L37.5102 70.7487Z" fill="#FFFF9F" stroke="#FFFF9F"/>
<path d="M164.613 71.7926C164.853 71.3722 165.491 71.5054 165.544 71.987L165.719 73.5978C165.79 74.2439 166.268 74.7718 166.904 74.9046L168.491 75.2359C168.965 75.335 169.036 75.9826 168.594 76.1812L167.115 76.8452C166.523 77.1117 166.169 77.7302 166.239 78.3762L166.415 79.9871C166.467 80.4686 165.872 80.7363 165.547 80.3776L164.458 79.1765C164.021 78.6954 163.325 78.5501 162.732 78.8163L161.254 79.4813C160.812 79.6799 160.374 79.1966 160.615 78.7763L161.42 77.3702C161.743 76.8062 161.666 76.0978 161.23 75.6165L160.14 74.4164C159.815 74.0576 160.139 73.4923 160.613 73.5913L162.2 73.9225C162.836 74.0552 163.485 73.7626 163.807 73.1987L164.613 71.7926Z" fill="#FFFF9F" stroke="#FFFF9F"/>
<path d="M146.208 92.8805C146.304 92.4058 146.952 92.3312 147.153 92.7717L147.827 94.2453C148.097 94.8363 148.717 95.1867 149.363 95.1124L150.973 94.9269C151.455 94.8716 151.726 95.464 151.369 95.7917L150.175 96.8876C149.696 97.3272 149.555 98.0257 149.825 98.6167L150.499 100.09C150.701 100.531 150.221 100.972 149.799 100.734L148.387 99.9373C147.821 99.6182 147.114 99.6997 146.636 100.139L145.442 101.236C145.085 101.564 144.518 101.243 144.614 100.768L144.935 99.1798C145.064 98.5429 144.768 97.8947 144.202 97.5754L142.79 96.7796C142.368 96.5415 142.497 95.903 142.978 95.8476L144.589 95.6621C145.234 95.5877 145.758 95.1056 145.887 94.4687L146.208 92.8805Z" fill="#FFFF9F" stroke="#FFFF9F"/>
<path d="M153.181 75.6881C153.436 75.2763 154.069 75.4314 154.105 75.9144L154.193 77.1135C154.242 77.7614 154.702 78.3047 155.333 78.4593L156.5 78.7454C156.971 78.8607 157.019 79.5104 156.571 79.6937L155.458 80.1489C154.856 80.3948 154.481 80.9999 154.529 81.6479L154.619 82.8471C154.654 83.33 154.051 83.5768 153.738 83.2075L152.961 82.2891C152.541 81.7932 151.85 81.6239 151.248 81.8696L150.136 82.3249C149.687 82.5081 149.266 82.01 149.521 81.5982L150.154 80.5758C150.496 80.0234 150.443 79.3136 150.024 78.8176L149.247 77.8994C148.934 77.5296 149.277 76.9758 149.748 77.091L150.915 77.3771C151.546 77.5317 152.206 77.2625 152.548 76.7103L153.181 75.6881Z" fill="#FFFF9F" stroke="#FFFF9F"/>
<line x1="100.917" y1="147.138" x2="63.35" y2="126.795" stroke="#FFFF9F" stroke-width="2" stroke-linecap="round"/>
<line x1="50.8259" y1="117.397" x2="19.6578" y2="76.5086" stroke="#FFFF9F" stroke-width="2" stroke-linecap="round"/>
<line x1="30.7921" y1="72.4319" x2="23.44" y2="71.0177" stroke="#FFFF9F" stroke-width="2" stroke-linecap="round"/>
<line x1="52.9923" y1="83.2532" x2="41.7533" y2="77.2014" stroke="#FFFF9F" stroke-width="2" stroke-linecap="round"/>
<line x1="81.7524" y1="93.9164" x2="65.6164" y2="87.6413" stroke="#FFFF9F" stroke-width="2" stroke-linecap="round"/>
<line x1="140.347" y1="96.3469" x2="96.3469" y2="96.3469" stroke="#FFFF9F" stroke-width="2" stroke-linecap="round"/>
<line x1="122.004" y1="141.719" x2="113.719" y2="146.69" stroke="#FFFF9F" stroke-width="2" stroke-linecap="round"/>
<line x1="143.942" y1="103.63" x2="133.63" y2="131.752" stroke="#FFFF9F" stroke-width="2" stroke-linecap="round"/>
<line x1="151.569" y1="84.641" x2="149.47" y2="92.5656" stroke="#FFFF9F" stroke-width="2" stroke-linecap="round"/>
<line x1="158.575" y1="76.4405" x2="156.441" y2="76.6517" stroke="#FFFF9F" stroke-width="2" stroke-linecap="round"/>
</svg>
