<svg width="191" height="191" viewBox="0 0 191 191" fill="none" xmlns="http://www.w3.org/2000/svg">
<path d="M131.752 37.1161C131.97 36.6835 132.614 36.7825 132.692 37.2606L132.959 38.8973C133.064 39.5385 133.569 40.0391 134.211 40.1379L135.851 40.3899C136.33 40.4635 136.434 41.1075 136.004 41.3293L134.53 42.0889C133.952 42.3865 133.632 43.0221 133.736 43.6634L134.003 45.3011C134.081 45.779 133.502 46.0772 133.158 45.7363L131.98 44.5692C131.518 44.1119 130.814 44.0037 130.237 44.3014L128.762 45.0609C128.332 45.2828 127.869 44.8245 128.087 44.3919L128.833 42.9099C129.125 42.3297 129.01 41.6272 128.549 41.1699L127.37 40.0026C127.026 39.6618 127.319 39.0793 127.798 39.1525L129.438 39.4045C130.08 39.5032 130.713 39.1774 131.005 38.5971L131.752 37.1161Z" fill="#FFFF9F" stroke="#FFFF9F"/>
<path d="M146.752 40.1161C146.97 39.6835 147.614 39.7825 147.692 40.2606L147.959 41.8973C148.064 42.5385 148.569 43.0391 149.211 43.1379L150.851 43.3899C151.33 43.4635 151.434 44.1075 151.004 44.3293L149.53 45.0889C148.952 45.3865 148.632 46.0221 148.736 46.6634L149.003 48.3011C149.081 48.779 148.502 49.0772 148.158 48.7363L146.98 47.5692C146.518 47.1119 145.814 47.0037 145.237 47.3014L143.762 48.0609C143.332 48.2828 142.869 47.8245 143.087 47.3919L143.833 45.9099C144.125 45.3297 144.01 44.6272 143.549 44.1699L142.37 43.0026C142.026 42.6618 142.319 42.0793 142.798 42.1525L144.438 42.4045C145.08 42.5032 145.713 42.1774 146.005 41.5971L146.752 40.1161Z" fill="#FFFF9F" stroke="#FFFF9F"/>
<path d="M150.103 78.3914C150.443 78.046 151.026 78.337 150.954 78.816L150.709 80.4562C150.613 81.0987 150.941 81.7297 151.522 82.0199L153.007 82.7606C153.44 82.9768 153.344 83.6221 152.866 83.7019L151.23 83.9749C150.589 84.082 150.09 84.5895 149.994 85.232L149.748 86.873C149.676 87.3519 149.034 87.4589 148.81 87.0293L148.045 85.5581C147.745 84.9816 147.107 84.6637 146.466 84.7707L144.831 85.0438C144.353 85.1236 144.052 84.5458 144.391 84.2004L145.555 83.0172C146.01 82.5538 146.115 81.8498 145.816 81.2735L145.049 79.8019C144.826 79.3724 145.283 78.9073 145.717 79.1231L147.201 79.8639C147.783 80.154 148.485 80.0371 148.94 79.5737L150.103 78.3914Z" fill="#FFFF9F" stroke="#FFFF9F"/>
<path d="M107.752 69.1161C107.97 68.6835 108.614 68.7825 108.692 69.2606L108.959 70.8973C109.064 71.5385 109.569 72.0391 110.211 72.1379L111.851 72.3899C112.33 72.4635 112.435 73.1075 112.004 73.3293L110.53 74.0889C109.952 74.3865 109.632 75.0221 109.736 75.6634L110.003 77.3011C110.081 77.779 109.502 78.0772 109.158 77.7363L107.98 76.5692C107.518 76.1119 106.814 76.0037 106.237 76.3014L104.762 77.0609C104.332 77.2828 103.869 76.8245 104.087 76.3919L104.833 74.9099C105.125 74.3297 105.011 73.6272 104.549 73.1699L103.37 72.0026C103.026 71.6618 103.319 71.0793 103.798 71.1525L105.438 71.4045C106.08 71.5032 106.713 71.1774 107.005 70.5971L107.752 69.1161Z" fill="#FFFF9F" stroke="#FFFF9F"/>
<path d="M92.7517 98.1161C92.9696 97.6835 93.6139 97.7825 93.6919 98.2606L93.9591 99.8973C94.0637 100.538 94.5689 101.039 95.211 101.138L96.8509 101.39C97.3296 101.463 97.4345 102.107 97.0039 102.329L95.5297 103.089C94.9521 103.387 94.6319 104.022 94.7364 104.663L95.0035 106.301C95.0813 106.779 94.5021 107.077 94.1581 106.736L92.9798 105.569C92.5182 105.112 91.8143 105.004 91.2366 105.301L89.7624 106.061C89.3318 106.283 88.8688 105.824 89.0866 105.392L89.833 103.91C90.1251 103.33 90.0105 102.627 89.5491 102.17L88.3699 101.003C88.0261 100.662 88.3195 100.079 88.798 100.153L90.4379 100.405C91.0802 100.503 91.7131 100.177 92.0055 99.5971L92.7517 98.1161Z" fill="#FFFF9F" stroke="#FFFF9F"/>
<path d="M92.7517 132.116C92.9696 131.684 93.6139 131.783 93.6919 132.261L93.9591 133.897C94.0637 134.538 94.5689 135.039 95.211 135.138L96.8509 135.39C97.3296 135.463 97.4345 136.107 97.0039 136.329L95.5297 137.089C94.9521 137.387 94.6319 138.022 94.7364 138.663L95.0035 140.301C95.0813 140.779 94.5021 141.077 94.1581 140.736L92.9798 139.569C92.5182 139.112 91.8143 139.004 91.2366 139.301L89.7624 140.061C89.3318 140.283 88.8688 139.824 89.0866 139.392L89.833 137.91C90.1251 137.33 90.0105 136.627 89.5491 136.17L88.3699 135.003C88.0261 134.662 88.3195 134.079 88.798 134.153L90.4379 134.405C91.0802 134.503 91.7131 134.177 92.0055 133.597L92.7517 132.116Z" fill="#FFFF9F" stroke="#FFFF9F"/>
<path d="M59.7517 145.116C59.9696 144.684 60.6139 144.783 60.6919 145.261L60.9591 146.897C61.0637 147.538 61.5689 148.039 62.211 148.138L63.8509 148.39C64.3296 148.463 64.4345 149.107 64.0039 149.329L62.5297 150.089C61.9521 150.387 61.6319 151.022 61.7364 151.663L62.0035 153.301C62.0813 153.779 61.5021 154.077 61.1581 153.736L59.9798 152.569C59.5182 152.112 58.8143 152.004 58.2366 152.301L56.7624 153.061C56.3318 153.283 55.8688 152.824 56.0866 152.392L56.833 150.91C57.1251 150.33 57.0105 149.627 56.5491 149.17L55.3699 148.003C55.0261 147.662 55.3195 147.079 55.798 147.153L57.4379 147.405C58.0802 147.503 58.7131 147.177 59.0055 146.597L59.7517 145.116Z" fill="#FFFF9F" stroke="#FFFF9F"/>
<path d="M42.7517 136.116C42.9696 135.684 43.6139 135.783 43.6919 136.261L43.9591 137.897C44.0637 138.538 44.5689 139.039 45.211 139.138L46.8509 139.39C47.3296 139.463 47.4345 140.107 47.0039 140.329L45.5297 141.089C44.9521 141.387 44.6319 142.022 44.7364 142.663L45.0035 144.301C45.0813 144.779 44.5021 145.077 44.1581 144.736L42.9798 143.569C42.5182 143.112 41.8143 143.004 41.2366 143.301L39.7624 144.061C39.3318 144.283 38.8688 143.824 39.0866 143.392L39.833 141.91C40.1251 141.33 40.0105 140.627 39.5491 140.17L38.3699 139.003C38.0261 138.662 38.3195 138.079 38.798 138.153L40.4379 138.405C41.0802 138.503 41.7131 138.177 42.0055 137.597L42.7517 136.116Z" fill="#FFFF9F" stroke="#FFFF9F"/>
<path d="M92.1161 115.038C92.241 114.57 92.8919 114.535 93.0659 114.987L93.4213 115.911C93.6547 116.518 94.2523 116.904 94.9012 116.87L95.8901 116.817C96.3737 116.791 96.6079 117.4 96.2318 117.705L95.4622 118.329C94.9579 118.739 94.7741 119.426 95.0074 120.033L95.3638 120.957C95.5373 121.409 95.0314 121.82 94.6251 121.556L93.7935 121.018C93.2482 120.665 92.5379 120.702 92.0333 121.112L91.2637 121.736C90.8877 122.04 90.3411 121.686 90.4655 121.219L90.7215 120.261C90.889 119.634 90.6331 118.969 90.088 118.616L89.2564 118.078C88.85 117.814 89.0182 117.184 89.5017 117.158L90.4905 117.105C91.1394 117.071 91.6924 116.622 91.86 115.994L92.1161 115.038Z" fill="#FFFF9F" stroke="#FFFF9F"/>
<path d="M38.5109 114.116C38.5912 113.638 39.2359 113.542 39.4517 113.976L39.8926 114.862C40.1822 115.444 40.8135 115.773 41.4563 115.677L42.4358 115.531C42.9148 115.46 43.2054 116.044 42.8597 116.384L42.1523 117.077C41.6889 117.532 41.5707 118.234 41.8601 118.816L42.3021 119.703C42.5174 120.136 42.0525 120.592 41.6231 120.369L40.7445 119.911C40.1683 119.611 39.4647 119.715 39.001 120.17L38.2936 120.864C37.948 121.203 37.3705 120.902 37.4502 120.425L37.6148 119.448C37.7225 118.807 37.4051 118.17 36.8291 117.869L35.9504 117.411C35.5211 117.188 35.6291 116.544 36.1079 116.473L37.0874 116.327C37.7302 116.231 38.2385 115.733 38.3461 115.092L38.5109 114.116Z" fill="#FFFF9F" stroke="#FFFF9F"/>
<path d="M75.0047 140.01C75.152 139.549 75.8038 139.545 75.9559 140.005L76.2665 140.945C76.4706 141.562 77.0489 141.977 77.6987 141.974L78.689 141.968C79.1733 141.966 79.378 142.585 78.9877 142.872L78.189 143.458C77.6657 143.843 77.4491 144.521 77.653 145.138L77.9646 146.079C78.1163 146.538 77.5913 146.924 77.1981 146.641L76.3932 146.064C75.8655 145.685 75.1542 145.688 74.6306 146.073L73.8319 146.659C73.4417 146.946 72.9128 146.566 73.0594 146.105L73.3611 145.161C73.5585 144.542 73.3348 143.866 72.8073 143.487L72.0025 142.909C71.6092 142.626 71.8075 142.005 72.2916 142.002L73.2818 141.997C73.9316 141.994 74.5055 141.572 74.7031 140.953L75.0047 140.01Z" fill="#FFFF9F" stroke="#FFFF9F"/>
<path d="M129.563 60.9764C129.781 60.5438 130.425 60.6428 130.503 61.1208L130.662 62.0978C130.767 62.7391 131.273 63.2399 131.915 63.3386L132.894 63.489C133.373 63.5626 133.477 64.2065 133.047 64.4284L132.166 64.8819C131.589 65.1796 131.268 65.8153 131.373 66.4564L131.533 67.4344C131.61 67.9122 131.031 68.2104 130.687 67.8697L129.983 67.1726C129.522 66.7154 128.819 66.6073 128.241 66.9049L127.36 67.3584C126.93 67.58 126.467 67.1218 126.684 66.6894L127.131 65.8046C127.423 65.2243 127.308 64.5219 126.847 64.0645L126.143 63.3674C125.799 63.0266 126.092 62.444 126.571 62.5173L127.549 62.6677C128.192 62.7664 128.825 62.4406 129.117 61.8603L129.563 60.9764Z" fill="#FFFF9F" stroke="#FFFF9F"/>
<path d="M148.155 66.3334C147.815 65.9891 148.114 65.4099 148.592 65.4883L149.568 65.6486C150.21 65.7538 150.846 65.4337 151.144 64.8563L151.598 63.9765C151.82 63.5461 152.464 63.6518 152.537 64.1306L152.687 65.1101C152.785 65.7522 153.285 66.2584 153.926 66.3636L154.904 66.5235C155.382 66.6022 155.48 67.246 155.048 67.4635L154.163 67.9089C153.582 68.2008 153.256 68.8328 153.354 69.4751L153.503 70.4545C153.576 70.933 152.994 71.2257 152.654 70.882L151.957 70.1771C151.5 69.7153 150.798 69.6003 150.217 69.892L149.332 70.3373C148.9 70.5548 148.441 70.0911 148.663 69.6608L149.117 68.781C149.415 68.2036 149.308 67.4998 148.851 67.0378L148.155 66.3334Z" fill="#FFFF9F" stroke="#FFFF9F"/>
<path d="M121.242 64.2729C121.712 64.1582 122.055 64.7129 121.741 65.0822L121.101 65.8369C120.681 66.3324 120.627 67.0423 120.969 67.5952L121.489 68.4378C121.743 68.8499 121.321 69.3473 120.873 69.1635L119.957 68.787C119.356 68.5406 118.664 68.7089 118.244 69.2042L117.603 69.9602C117.289 70.329 116.687 70.0817 116.723 69.5989L116.797 68.6109C116.846 67.963 116.472 67.3577 115.871 67.111L114.955 66.7346C114.507 66.5507 114.556 65.9013 115.026 65.7863L115.989 65.5522C116.62 65.3984 117.08 64.8555 117.129 64.2077L117.203 63.2197C117.24 62.7368 117.874 62.5824 118.128 62.9942L118.648 63.8368C118.99 64.3897 119.648 64.6603 120.28 64.5065L121.242 64.2729Z" fill="#FFFF9F" stroke="#FFFF9F"/>
<path d="M67.563 116.976C67.7809 116.544 68.4252 116.643 68.5032 117.121L68.6623 118.098C68.7669 118.739 69.2728 119.24 69.9151 119.339L70.8939 119.489C71.3726 119.563 71.4775 120.206 71.0469 120.428L70.1661 120.882C69.5888 121.18 69.2683 121.815 69.3728 122.456L69.5328 123.434C69.6103 123.912 69.0313 124.21 68.6873 123.87L67.9833 123.173C67.5217 122.715 66.8186 122.607 66.241 122.905L65.3602 123.358C64.9298 123.58 64.4671 123.122 64.6844 122.689L65.1306 121.805C65.4229 121.224 65.3081 120.522 64.8467 120.064L64.1426 119.367C63.7987 119.027 64.0921 118.444 64.5706 118.517L65.5494 118.668C66.1917 118.766 66.8246 118.441 67.117 117.86L67.563 116.976Z" fill="#FFFF9F" stroke="#FFFF9F"/>
<path d="M54.563 125.976C54.7809 125.544 55.4252 125.643 55.5032 126.121L55.6623 127.098C55.7669 127.739 56.2728 128.24 56.9151 128.339L57.8939 128.489C58.3726 128.563 58.4775 129.206 58.0469 129.428L57.1661 129.882C56.5888 130.18 56.2683 130.815 56.3728 131.456L56.5328 132.434C56.6103 132.912 56.0313 133.21 55.6873 132.87L54.9833 132.173C54.5217 131.715 53.8186 131.607 53.241 131.905L52.3602 132.358C51.9298 132.58 51.4671 132.122 51.6844 131.689L52.1306 130.805C52.4229 130.224 52.3081 129.522 51.8467 129.064L51.1426 128.367C50.7987 128.027 51.0921 127.444 51.5706 127.517L52.5494 127.668C53.1917 127.766 53.8246 127.441 54.117 126.86L54.563 125.976Z" fill="#FFFF9F" stroke="#FFFF9F"/>
<path d="M58.2395 106.985C58.4171 106.535 59.0677 106.575 59.1889 107.043L59.4364 108.002C59.599 108.631 60.1484 109.084 60.797 109.123L61.7854 109.184C62.2688 109.214 62.4319 109.845 62.0234 110.106L61.1875 110.637C60.6397 110.987 60.3785 111.649 60.541 112.278L60.7893 113.237C60.9101 113.706 60.3606 114.055 59.9871 113.748L59.2224 113.117C58.7211 112.704 58.0111 112.661 57.463 113.01L56.6272 113.541C56.2188 113.801 55.7163 113.387 55.8933 112.937L56.257 112.015C56.4952 111.41 56.3169 110.721 55.8158 110.308L55.0511 109.678C54.6776 109.37 54.9167 108.763 55.4 108.792L56.3883 108.853C57.0369 108.893 57.6376 108.511 57.8758 107.906L58.2395 106.985Z" fill="#FFFF9F" stroke="#FFFF9F"/>
<path d="M151.124 51.8735C151.387 51.4667 152.017 51.6342 152.043 52.1178L152.068 52.564C152.104 53.2127 152.553 53.765 153.181 53.932L153.612 54.0466C154.08 54.1711 154.116 54.8216 153.664 54.9961L153.247 55.1571C152.641 55.3911 152.255 55.9888 152.29 56.6376L152.313 57.0844C152.339 57.5679 151.732 57.8023 151.426 57.4266L151.144 57.0798C150.735 56.5759 150.047 56.3931 149.441 56.6269L149.023 56.7877C148.572 56.9617 148.161 56.457 148.424 56.0504L148.667 55.6743C149.019 55.1287 148.981 54.418 148.571 53.9138L148.289 53.5671C147.983 53.1913 148.337 52.6443 148.805 52.7687L149.237 52.8834C149.865 53.0503 150.529 52.7941 150.882 52.2486L151.124 51.8735Z" fill="#FFFF9F" stroke="#FFFF9F"/>
<line x1="133.687" y1="66.9357" x2="143.526" y2="77.2843" stroke="#FFFF9F" stroke-width="2" stroke-linecap="round"/>
<line x1="150.974" y1="72" x2="150.974" y2="76" stroke="#FFFF9F" stroke-width="2" stroke-linecap="round"/>
<line x1="130.722" y1="46.519" x2="130.493" y2="58.5168" stroke="#FFFF9F" stroke-width="2" stroke-linecap="round"/>
<line x1="140.361" y1="41.8276" x2="138.301" y2="41.3127" stroke="#FFFF9F" stroke-width="2" stroke-linecap="round"/>
<line x1="149.407" y1="50.7743" x2="149.411" y2="50.7907" stroke="#FFFF9F" stroke-width="2" stroke-linecap="round"/>
<line x1="124.307" y1="65.4743" x2="124.311" y2="65.4907" stroke="#FFFF9F" stroke-width="2" stroke-linecap="round"/>
<line x1="114.347" y1="68.811" x2="111.585" y2="69.9822" stroke="#FFFF9F" stroke-width="2" stroke-linecap="round"/>
<line x1="103.216" y1="79.2588" x2="94.4976" y2="95.679" stroke="#FFFF9F" stroke-width="2" stroke-linecap="round"/>
<line x1="91.9952" y1="107.578" x2="92.1044" y2="112.576" stroke="#FFFF9F" stroke-width="2" stroke-linecap="round"/>
<line x1="92.9736" y1="122.8" x2="92.9736" y2="129.8" stroke="#FFFF9F" stroke-width="2" stroke-linecap="round"/>
<line x1="87.4817" y1="137.628" x2="80.9271" y2="141.135" stroke="#FFFF9F" stroke-width="2" stroke-linecap="round"/>
<line x1="70.6053" y1="145.365" x2="66.339" y2="147.819" stroke="#FFFF9F" stroke-width="2" stroke-linecap="round"/>
<line x1="53.2319" y1="146.147" x2="47.0208" y2="143.042" stroke="#FFFF9F" stroke-width="2" stroke-linecap="round"/>
<line x1="49.7577" y1="133.814" x2="46.5697" y2="136.851" stroke="#FFFF9F" stroke-width="2" stroke-linecap="round"/>
<line x1="62.9155" y1="123.937" x2="57.7105" y2="126.471" stroke="#FFFF9F" stroke-width="2" stroke-linecap="round"/>
<line x1="53.8747" y1="111.981" x2="45.1547" y2="115.145" stroke="#FFFF9F" stroke-width="2" stroke-linecap="round"/>
<line x1="65.5868" y1="116.723" x2="62.6962" y2="112.387" stroke="#FFFF9F" stroke-width="2" stroke-linecap="round"/>
</svg>
