<svg width="191" height="191" viewBox="0 0 191 191" fill="none" xmlns="http://www.w3.org/2000/svg">
<path d="M101.667 62.457C101.612 61.9758 102.205 61.7053 102.532 62.0622L104.377 64.0745C104.817 64.5535 105.514 64.6948 106.105 64.4251L108.59 63.2918C109.03 63.0908 109.471 63.5718 109.233 63.9934L107.889 66.37C107.569 66.9357 107.65 67.6436 108.09 68.1226L109.935 70.1349C110.262 70.4918 109.942 71.0597 109.467 70.9634L106.791 70.4195C106.154 70.2902 105.506 70.5858 105.186 71.1515L103.843 73.529C103.605 73.9506 102.966 73.8205 102.911 73.3392L102.6 70.6266C102.527 69.981 102.045 69.4557 101.408 69.3263L98.7318 68.7838C98.2574 68.6873 98.1833 68.0393 98.6235 67.8382L101.109 66.7045C101.7 66.4348 102.05 65.8153 101.977 65.1697L101.667 62.457Z" fill="#FFFF9F" stroke="#FFFF9F"/>
<path d="M154.883 46.9474C154.935 46.4659 155.574 46.3331 155.814 46.7535L157.169 49.1238C157.492 49.6879 158.141 49.9798 158.777 49.8474L161.45 49.2909C161.925 49.1922 162.248 49.7587 161.923 50.1173L160.087 52.1383C159.65 52.6194 159.573 53.3277 159.895 53.8919L161.251 56.2621C161.491 56.6826 161.053 57.1655 160.611 56.9668L158.121 55.8452C157.529 55.5784 156.832 55.7236 156.395 56.2046L154.559 58.2266C154.234 58.5852 153.639 58.3171 153.692 57.8356L153.989 55.1214C154.059 54.4754 153.706 53.8568 153.113 53.59L150.623 52.4695C150.181 52.2706 150.252 51.6223 150.726 51.5234L153.4 50.9667C154.036 50.8342 154.515 50.3075 154.586 49.6615L154.883 46.9474Z" fill="#FFFF9F" stroke="#FFFF9F"/>
<path d="M68.7455 99.8304C68.8654 99.3611 69.5149 99.3193 69.6938 99.7694L70.4465 101.661C70.6865 102.264 71.2883 102.646 71.9368 102.604L73.9687 102.474C74.4517 102.443 74.6923 103.048 74.3201 103.357L72.7528 104.658C72.2526 105.072 72.0765 105.762 72.3165 106.366L73.0683 108.258C73.247 108.708 72.7454 109.124 72.3361 108.865L70.6154 107.777C70.0663 107.429 69.3564 107.475 68.8563 107.89L67.2889 109.189C66.9162 109.498 66.3655 109.15 66.4852 108.681L66.9886 106.708C67.1494 106.079 66.8864 105.417 66.3373 105.07L64.6164 103.981C64.2077 103.722 64.3689 103.091 64.8518 103.059L66.8837 102.929C67.5322 102.887 68.0803 102.432 68.2411 101.802L68.7455 99.8304Z" fill="#FFFF9F" stroke="#FFFF9F"/>
<path d="M68.7644 127.971C68.7865 127.487 69.414 127.314 69.6806 127.719L70.8014 129.418C71.159 129.96 71.8256 130.212 72.4522 130.039L74.4153 129.499C74.882 129.371 75.2404 129.914 74.9386 130.293L73.6679 131.884C73.2623 132.392 73.2297 133.103 73.5873 133.646L74.7075 135.346C74.9738 135.75 74.567 136.259 74.1137 136.089L72.2079 135.372C71.5997 135.143 70.9139 135.332 70.5084 135.84L69.2373 137.43C68.9351 137.809 68.3252 137.58 68.3472 137.096L68.4398 135.062C68.4694 134.413 68.0777 133.819 67.4695 133.59L65.5635 132.873C65.1106 132.702 65.1405 132.051 65.607 131.923L67.5701 131.382C68.1967 131.21 68.641 130.653 68.6706 130.004L68.7644 127.971Z" fill="#FFFF9F" stroke="#FFFF9F"/>
<path d="M105.746 119.708C105.865 119.238 106.515 119.197 106.694 119.647L107.446 121.538C107.686 122.142 108.288 122.523 108.937 122.481L110.969 122.351C111.452 122.32 111.692 122.925 111.32 123.234L109.753 124.535C109.253 124.95 109.076 125.639 109.316 126.243L110.068 128.135C110.247 128.585 109.745 129.001 109.336 128.742L107.615 127.654C107.066 127.307 106.356 127.352 105.856 127.767L104.289 129.066C103.916 129.376 103.365 129.028 103.485 128.558L103.989 126.586C104.149 125.956 103.886 125.295 103.337 124.947L101.616 123.858C101.208 123.599 101.369 122.968 101.852 122.937L103.884 122.806C104.532 122.764 105.08 122.309 105.241 121.68L105.746 119.708Z" fill="#FFFF9F" stroke="#FFFF9F"/>
<path d="M145.244 69.6755C145.363 69.2062 146.013 69.1644 146.192 69.6145L146.809 71.167C147.049 71.7708 147.651 72.1512 148.3 72.1095L149.967 72.0024C150.45 71.9715 150.691 72.5767 150.318 72.886L149.033 73.953C148.532 74.3679 148.356 75.0574 148.596 75.6613L149.213 77.2138C149.392 77.6639 148.89 78.0806 148.481 77.8216L147.069 76.9279C146.52 76.5806 145.81 76.6262 145.31 77.0409L144.024 78.1079C143.651 78.4172 143.1 78.0682 143.22 77.5989L143.633 75.9802C143.794 75.3506 143.531 74.6893 142.982 74.3418L141.57 73.4481C141.161 73.189 141.322 72.5581 141.805 72.5268L143.473 72.4197C144.121 72.378 144.669 71.9237 144.83 71.2942L145.244 69.6755Z" fill="#FFFF9F" stroke="#FFFF9F"/>
<path d="M32.2436 117.675C32.3635 117.206 33.013 117.164 33.1919 117.615L33.8093 119.167C34.0494 119.771 34.6512 120.151 35.2996 120.11L36.967 120.002C37.4502 119.971 37.6908 120.577 37.3183 120.886L36.0326 121.953C35.5324 122.368 35.3563 123.057 35.5963 123.661L36.2127 125.214C36.3916 125.664 35.89 126.081 35.4807 125.822L34.0689 124.928C33.5199 124.581 32.8099 124.626 32.3098 125.041L31.024 126.108C30.6512 126.417 30.1004 126.068 30.2202 125.599L30.6329 123.98C30.7936 123.351 30.5307 122.689 29.9816 122.342L28.5698 121.448C28.1609 121.189 28.3221 120.558 28.8051 120.527L30.4726 120.42C31.121 120.378 31.6691 119.924 31.83 119.294L32.2436 117.675Z" fill="#FFFF9F" stroke="#FFFF9F"/>
<path d="M47.2436 137.675C47.3635 137.206 48.013 137.164 48.1919 137.615L48.8093 139.167C49.0494 139.771 49.6512 140.151 50.2996 140.11L51.967 140.002C52.4502 139.971 52.6908 140.577 52.3183 140.886L51.0326 141.953C50.5324 142.368 50.3563 143.057 50.5963 143.661L51.2127 145.214C51.3916 145.664 50.89 146.081 50.4807 145.822L49.0689 144.928C48.5199 144.581 47.8099 144.626 47.3098 145.041L46.024 146.108C45.6512 146.417 45.1004 146.068 45.2202 145.599L45.6329 143.98C45.7936 143.351 45.5307 142.689 44.9816 142.342L43.5698 141.448C43.1609 141.189 43.3221 140.558 43.8051 140.527L45.4726 140.42C46.121 140.378 46.6691 139.924 46.83 139.294L47.2436 137.675Z" fill="#FFFF9F" stroke="#FFFF9F"/>
<path d="M91.2436 96.6755C91.3635 96.2062 92.013 96.1644 92.1919 96.6145L92.8093 98.167C93.0494 98.7708 93.6512 99.1512 94.2996 99.1095L95.967 99.0024C96.4502 98.9715 96.6908 99.5767 96.3183 99.886L95.0326 100.953C94.5324 101.368 94.3563 102.057 94.5963 102.661L95.2127 104.214C95.3916 104.664 94.89 105.081 94.4807 104.822L93.0689 103.928C92.5199 103.581 91.8099 103.626 91.3098 104.041L90.024 105.108C89.6512 105.417 89.1004 105.068 89.2202 104.599L89.6329 102.98C89.7936 102.351 89.5307 101.689 88.9816 101.342L87.5698 100.448C87.1609 100.189 87.3221 99.5581 87.8051 99.5268L89.4726 99.4197C90.121 99.378 90.6691 98.9237 90.83 98.2942L91.2436 96.6755Z" fill="#FFFF9F" stroke="#FFFF9F"/>
<path d="M115.309 101.736C115.429 101.266 116.079 101.224 116.258 101.675L116.625 102.594C116.865 103.198 117.466 103.579 118.114 103.538L119.103 103.474C119.587 103.443 119.827 104.049 119.454 104.358L118.692 104.99C118.192 105.405 118.015 106.096 118.255 106.699L118.622 107.62C118.8 108.07 118.299 108.486 117.89 108.227L117.052 107.698C116.503 107.35 115.792 107.396 115.292 107.811L114.53 108.443C114.158 108.752 113.607 108.404 113.727 107.935L113.971 106.975C114.132 106.345 113.869 105.683 113.32 105.335L112.483 104.806C112.074 104.547 112.235 103.916 112.718 103.885L113.707 103.821C114.356 103.779 114.904 103.324 115.064 102.695L115.309 101.736Z" fill="#FFFF9F" stroke="#FFFF9F"/>
<path d="M127.309 87.6155C127.429 87.1462 128.079 87.1044 128.258 87.5545L128.625 88.4743C128.865 89.0781 129.466 89.4593 130.114 89.4179L131.103 89.3543C131.587 89.3233 131.827 89.9287 131.454 90.2379L130.692 90.8701C130.192 91.285 130.015 91.9755 130.255 92.5794L130.622 93.5001C130.8 93.9501 130.299 94.3657 129.89 94.1069L129.052 93.5775C128.503 93.23 127.792 93.2757 127.292 93.6906L126.53 94.3228C126.158 94.632 125.607 94.2839 125.727 93.8147L125.971 92.8546C126.132 92.225 125.869 91.5628 125.32 91.2153L124.483 90.6859C124.074 90.4268 124.235 89.7959 124.718 89.7646L125.707 89.701C126.356 89.6593 126.904 89.2042 127.064 88.5746L127.309 87.6155Z" fill="#FFFF9F" stroke="#FFFF9F"/>
<path d="M112.839 78.5498C113.027 78.1038 113.677 78.16 113.786 78.6318L114.011 79.5961C114.157 80.229 114.694 80.6961 115.342 80.7522L116.329 80.8376C116.812 80.8794 116.959 81.514 116.544 81.7639L115.695 82.2747C115.139 82.6099 114.861 83.2662 115.008 83.8992L115.232 84.8645C115.341 85.3361 114.783 85.6719 114.417 85.3547L113.669 84.7058C113.178 84.2799 112.468 84.2186 111.912 84.5538L111.064 85.0647C110.649 85.3145 110.157 84.8878 110.345 84.4419L110.731 83.5293C110.984 82.9309 110.823 82.2367 110.332 81.8109L109.584 81.1619C109.218 80.8446 109.472 80.2449 109.955 80.2863L110.942 80.3717C111.589 80.4277 112.2 80.0598 112.453 79.4614L112.839 78.5498Z" fill="#FFFF9F" stroke="#FFFF9F"/>
<line x1="153.137" y1="60.5196" x2="148.641" y2="69.5447" stroke="#FFFF9F" stroke-width="2" stroke-linecap="round"/>
<line x1="141.747" y1="79.4775" x2="130.391" y2="87.3391" stroke="#FFFF9F" stroke-width="2" stroke-linecap="round"/>
<line x1="124" y1="95.5003" x2="118.414" y2="101.086" stroke="#FFFF9F" stroke-width="2" stroke-linecap="round"/>
<line x1="113.064" y1="110.37" x2="109.017" y2="119.605" stroke="#FFFF9F" stroke-width="2" stroke-linecap="round"/>
<line x1="101.116" y1="126.41" x2="77.151" y2="129.633" stroke="#FFFF9F" stroke-width="2" stroke-linecap="round"/>
<line x1="65.3811" y1="135.358" x2="54.2716" y2="139.194" stroke="#FFFF9F" stroke-width="2" stroke-linecap="round"/>
<line x1="64.6058" y1="106.823" x2="39.2699" y2="119.164" stroke="#FFFF9F" stroke-width="2" stroke-linecap="round"/>
<line x1="87.0255" y1="102.616" x2="77.0179" y2="102.834" stroke="#FFFF9F" stroke-width="2" stroke-linecap="round"/>
<line x1="103.446" y1="120.525" x2="96.3576" y2="106.474" stroke="#FFFF9F" stroke-width="2" stroke-linecap="round"/>
<line x1="95.215" y1="96.6884" x2="108.602" y2="86.8711" stroke="#FFFF9F" stroke-width="2" stroke-linecap="round"/>
<line x1="117.265" y1="83.804" x2="124.647" y2="87.5882" stroke="#FFFF9F" stroke-width="2" stroke-linecap="round"/>
<line x1="107.17" y1="73.0771" x2="110.126" y2="78.0788" stroke="#FFFF9F" stroke-width="2" stroke-linecap="round"/>
</svg>
