<svg width="191" height="191" viewBox="0 0 191 191" fill="none" xmlns="http://www.w3.org/2000/svg">
<path d="M107.98 48.3321C107.805 47.8805 108.31 47.4687 108.717 47.7312L110.973 49.1861C111.519 49.5382 112.23 49.4991 112.734 49.0885L114.815 47.3924C115.19 47.0864 115.738 47.4394 115.614 47.9076L114.927 50.5031C114.761 51.1312 115.018 51.7949 115.564 52.1471L117.821 53.6021C118.228 53.8647 118.061 54.4943 117.578 54.5213L114.897 54.6702C114.248 54.7063 113.696 55.1564 113.53 55.7845L112.844 58.3799C112.72 58.8481 112.069 58.8846 111.894 58.4332L110.923 55.9299C110.689 55.3239 110.091 54.9384 109.442 54.9744L106.761 55.1234C106.278 55.1503 106.042 54.5428 106.418 54.2367L108.499 52.5406C109.002 52.13 109.184 51.4412 108.949 50.8353L107.98 48.3321Z" fill="#FFFF9F" stroke="#FFFF9F"/>
<path d="M125.88 108.111C125.888 107.627 126.512 107.436 126.789 107.833L128.328 110.032C128.701 110.564 129.374 110.796 129.996 110.607L132.563 109.822C133.026 109.68 133.4 110.214 133.109 110.601L131.493 112.745C131.102 113.264 131.089 113.975 131.462 114.508L133.002 116.707C133.279 117.104 132.887 117.624 132.429 117.466L129.891 116.592C129.277 116.38 128.596 116.589 128.204 117.107L126.589 119.251C126.297 119.638 125.681 119.426 125.69 118.942L125.736 116.258C125.747 115.608 125.339 115.025 124.725 114.813L122.186 113.939C121.729 113.781 121.74 113.13 122.203 112.988L124.771 112.204C125.392 112.014 125.821 111.444 125.832 110.795L125.88 108.111Z" fill="#FFFF9F" stroke="#FFFF9F"/>
<path d="M161.786 67.2043C162.184 66.9277 162.703 67.3216 162.544 67.7791L161.662 70.314C161.448 70.9277 161.654 71.6098 162.172 72.0025L164.311 73.6249C164.697 73.9176 164.483 74.533 163.998 74.523L161.314 74.4678C160.665 74.4545 160.08 74.8608 159.867 75.4744L158.985 78.0107C158.826 78.4678 158.174 78.4541 158.034 77.9907L157.258 75.4208C157.07 74.7988 156.502 74.3684 155.852 74.355L153.168 74.2998C152.684 74.2898 152.495 73.6663 152.893 73.3897L155.097 71.8561C155.63 71.485 155.864 70.8129 155.676 70.1909L154.899 67.621C154.759 67.1574 155.294 66.7856 155.68 67.0781L157.819 68.7005C158.336 69.0932 159.049 69.1075 159.582 68.7365L161.786 67.2043Z" fill="#FFFF9F" stroke="#FFFF9F"/>
<path d="M78.7355 118.237C78.9238 117.791 79.5732 117.846 79.6833 118.318L80.1269 120.22C80.2746 120.853 80.8123 121.318 81.4595 121.374L83.4065 121.54C83.8888 121.581 84.0361 122.215 83.6217 122.465L81.9498 123.476C81.3938 123.812 81.117 124.467 81.2644 125.1L81.708 127.002C81.818 127.473 81.261 127.811 80.8947 127.494L79.4169 126.216C78.9256 125.791 78.2167 125.73 77.6606 126.066L75.9887 127.076C75.574 127.326 75.0812 126.899 75.2694 126.453L76.0285 124.654C76.2809 124.055 76.1192 123.362 75.6279 122.937L74.1511 121.658C73.7848 121.341 74.0382 120.741 74.5208 120.782L76.4669 120.948C77.1142 121.003 77.7239 120.635 77.9765 120.037L78.7355 118.237Z" fill="#FFFF9F" stroke="#FFFF9F"/>
<path d="M77.2861 137.709C77.5017 137.275 78.1464 137.371 78.227 137.848L78.5519 139.774C78.6602 140.415 79.168 140.913 79.8105 141.008L81.7436 141.294C82.2223 141.366 82.3301 142.008 81.9009 142.232L80.1696 143.136C79.5939 143.437 79.277 144.075 79.385 144.715L79.7099 146.641C79.7904 147.118 79.2136 147.42 78.8676 147.082L77.4719 145.714C77.0078 145.26 76.304 145.155 75.7282 145.456L73.9969 146.361C73.5676 146.585 73.1021 146.128 73.3177 145.694L74.1868 143.945C74.4758 143.363 74.3573 142.662 73.8934 142.207L72.4986 140.839C72.1526 140.5 72.4427 139.917 72.9218 139.988L74.8539 140.274C75.4966 140.369 76.1278 140.04 76.417 139.458L77.2861 137.709Z" fill="#FFFF9F" stroke="#FFFF9F"/>
<path d="M49.5428 80.6659C49.7311 80.2196 50.3805 80.2749 50.4906 80.7466L50.8619 82.3347C51.0095 82.9674 51.5471 83.4338 52.1945 83.4891L53.8204 83.6277C54.303 83.6688 54.4511 84.3033 54.0365 84.5537L52.6395 85.3971C52.0835 85.733 51.8068 86.3889 51.9542 87.0215L52.3254 88.6106C52.4354 89.0822 51.8774 89.4194 51.5112 89.1028L50.2771 88.0351C49.7857 87.6099 49.076 87.5494 48.5198 87.8853L47.1238 88.7288C46.7091 88.9792 46.2163 88.5522 46.4045 88.1059L47.0384 86.6026C47.2908 86.0039 47.1292 85.3107 46.6378 84.8856L45.4047 83.818C45.0384 83.5011 45.2918 82.9008 45.7744 82.9419L47.3994 83.0804C48.0468 83.1356 48.6565 82.767 48.909 82.1682L49.5428 80.6659Z" fill="#FFFF9F" stroke="#FFFF9F"/>
<path d="M81.4375 73.2114C81.3986 72.7286 82.0003 72.478 82.3156 72.8458L83.3778 74.0833C83.8007 74.5765 84.4929 74.7422 85.0927 74.4926L86.5992 73.8653C87.0463 73.6791 87.4705 74.1737 87.2182 74.5871L86.3679 75.98C86.0297 76.5345 86.0868 77.2441 86.5095 77.7374L87.5721 78.9758C87.8873 79.3434 87.5478 79.9001 87.0768 79.7882L85.4893 79.4104C84.8571 79.2599 84.1996 79.5337 83.8611 80.0884L83.0118 81.4809C82.7595 81.8944 82.1252 81.7429 82.0863 81.2601L81.955 79.6339C81.9026 78.9863 81.4394 78.446 80.8073 78.2955L79.2207 77.9174C78.7495 77.8052 78.6973 77.1557 79.1445 76.9695L80.65 76.3426C81.2499 76.0928 81.6207 75.4845 81.5685 74.8367L81.4375 73.2114Z" fill="#FFFF9F" stroke="#FFFF9F"/>
<path d="M28.2602 68.1504C28.0617 67.7086 28.5446 67.2708 28.9649 67.5115L30.3806 68.3212C30.9444 68.6441 31.6521 68.5681 32.1335 68.1318L33.3423 67.0356C33.7012 66.7103 34.2666 67.034 34.1675 67.5081L33.8336 69.1054C33.7009 69.7413 33.9927 70.3906 34.5562 70.7136L35.9726 71.524C36.3928 71.7647 36.2597 72.4029 35.7784 72.4554L34.1561 72.6319C33.5101 72.7021 32.9825 73.1805 32.8496 73.8166L32.5164 75.4132C32.4173 75.8873 31.769 75.9574 31.5704 75.5156L30.9014 74.0276C30.6349 73.435 30.0173 73.0813 29.3714 73.1514L27.7499 73.3272C27.2683 73.3795 27.0014 72.7852 27.3602 72.4599L28.5683 71.3644C29.0497 70.9279 29.195 70.2305 28.9286 69.6377L28.2602 68.1504Z" fill="#FFFF9F" stroke="#FFFF9F"/>
<line x1="78.2669" y1="128.248" x2="77.9256" y2="135.239" stroke="#FFFF9F" stroke-width="2" stroke-linecap="round"/>
<line x1="123.146" y1="116.82" x2="85.998" y2="121.622" stroke="#FFFF9F" stroke-width="2" stroke-linecap="round"/>
<line x1="79.3486" y1="80.1454" x2="56.3235" y2="83.8295" stroke="#FFFF9F" stroke-width="2" stroke-linecap="round"/>
<line x1="105.058" y1="56.9786" x2="89.2991" y2="72.4483" stroke="#FFFF9F" stroke-width="2" stroke-linecap="round"/>
<line x1="115.367" y1="56.8652" x2="125.8" y2="104.942" stroke="#FFFF9F" stroke-width="2" stroke-linecap="round"/>
<line x1="154.823" y1="77.1151" x2="135.116" y2="107.258" stroke="#FFFF9F" stroke-width="2" stroke-linecap="round"/>
<line x1="153.208" y1="70.073" x2="119.928" y2="55.122" stroke="#FFFF9F" stroke-width="2" stroke-linecap="round"/>
<line x1="43.7725" y1="81.4562" x2="35.3342" y2="74.7056" stroke="#FFFF9F" stroke-width="2" stroke-linecap="round"/>
</svg>
