<svg width="191" height="191" viewBox="0 0 191 191" fill="none" xmlns="http://www.w3.org/2000/svg">
<path d="M30.4631 53.5028C30.5038 53.0202 31.1384 52.8716 31.3892 53.286L33.3687 56.5576C33.7051 57.1136 34.3614 57.3894 34.9941 57.2412L38.7176 56.3695C39.1892 56.2591 39.5268 56.8174 39.2102 57.1839L36.7104 60.078C36.2856 60.5698 36.2256 61.2789 36.562 61.8348L38.5415 65.1064C38.7923 65.5209 38.3663 66.0146 37.9198 65.8267L34.3951 64.3431C33.7961 64.091 33.1027 64.2534 32.6778 64.7451L30.178 67.6392C29.8614 68.0057 29.2604 67.7524 29.3012 67.2698L29.6227 63.4595C29.6773 62.812 29.3088 62.2032 28.7099 61.9511L25.1851 60.4674C24.7387 60.2796 24.7934 59.6294 25.265 59.519L28.9885 58.6472C29.6213 58.4991 30.0869 57.9607 30.1415 57.3132L30.4631 53.5028Z" fill="#FFFF9F" stroke="#FFFF9F"/>
<path d="M37.0682 90.6345C37.0819 90.1504 37.7072 89.9665 37.9808 90.3662L40.1403 93.5219C40.5073 94.0582 41.178 94.2968 41.8014 94.1135L45.4703 93.0347C45.935 92.898 46.3033 93.4366 46.0077 93.8203L43.6738 96.8497C43.2772 97.3645 43.257 98.0759 43.624 98.6121L45.7835 101.768C46.0571 102.168 45.6594 102.684 45.2031 102.522L41.6008 101.238C40.9887 101.02 40.3054 101.22 39.9088 101.735L37.5749 104.765C37.2792 105.148 36.6651 104.929 36.6787 104.445L36.7865 100.623C36.8048 99.9731 36.4028 99.3858 35.7907 99.1677L32.1884 97.8836C31.7322 97.721 31.7504 97.0688 32.2151 96.9322L35.884 95.8534C36.5074 95.6701 36.9422 95.1065 36.9605 94.4569L37.0682 90.6345Z" fill="#FFFF9F" stroke="#FFFF9F"/>
<path d="M132.23 86.194C132.385 85.7351 133.037 85.7429 133.181 86.2053L134.319 89.8559C134.513 90.4763 135.084 90.9013 135.734 90.909L139.558 90.9548C140.042 90.9606 140.236 91.5835 139.841 91.8635L136.72 94.0744C136.19 94.45 135.962 95.1241 136.155 95.7445L137.293 99.3951C137.438 99.8575 136.906 100.235 136.517 99.9454L133.451 97.6605C132.929 97.2723 132.217 97.2638 131.687 97.6394L128.567 99.8503C128.171 100.13 127.649 99.7404 127.804 99.2816L129.029 95.6593C129.237 95.0437 129.025 94.3644 128.504 93.9761L125.437 91.6912C125.049 91.4019 125.258 90.7838 125.742 90.7895L129.566 90.8353C130.216 90.843 130.797 90.4319 131.005 89.8163L132.23 86.194Z" fill="#FFFF9F" stroke="#FFFF9F"/>
<path d="M156.081 60.6201C156.177 60.1453 156.823 60.0708 157.025 60.5113L158.432 63.5881C158.703 64.1791 159.323 64.5294 159.968 64.455L163.331 64.0675C163.812 64.0123 164.083 64.6045 163.727 64.9321L161.234 67.2219C160.756 67.6615 160.615 68.3591 160.885 68.95L162.292 72.0278C162.494 72.4683 162.014 72.9088 161.592 72.6709L158.644 71.0092C158.078 70.69 157.371 70.7714 156.893 71.2111L154.4 73.4998C154.043 73.8275 153.476 73.5078 153.572 73.033L154.242 69.7157C154.371 69.0788 154.075 68.4316 153.509 68.1123L150.561 66.4497C150.139 66.2117 150.268 65.5735 150.749 65.5177L154.112 65.1301C154.757 65.0557 155.282 64.5734 155.41 63.9365L156.081 60.6201Z" fill="#FFFF9F" stroke="#FFFF9F"/>
<path d="M122.682 119.513C122.886 119.074 123.532 119.152 123.625 119.628L124.276 122.948C124.401 123.586 124.922 124.071 125.567 124.15L128.927 124.558C129.408 124.616 129.533 125.255 129.11 125.491L126.152 127.135C125.584 127.451 125.284 128.097 125.409 128.734L126.06 132.056C126.153 132.531 125.583 132.847 125.228 132.517L122.75 130.214C122.274 129.771 121.568 129.685 121 130.001L118.042 131.645C117.618 131.88 117.141 131.437 117.345 130.998L118.771 127.928C119.045 127.339 118.908 126.641 118.432 126.198L115.954 123.893C115.6 123.564 115.874 122.973 116.355 123.031L119.715 123.439C120.36 123.517 120.982 123.171 121.256 122.582L122.682 119.513Z" fill="#FFFF9F" stroke="#FFFF9F"/>
<path d="M79.9351 89.5071C80.1187 89.0589 80.7687 89.1075 80.8836 89.578L81.6176 92.5844C81.7719 93.2155 82.3152 93.6756 82.9631 93.724L86.0492 93.9548C86.5322 93.9909 86.6868 94.6237 86.2749 94.8785L83.6424 96.5061C83.0897 96.8477 82.8199 97.5063 82.9739 98.1375L83.7079 101.144C83.8228 101.614 83.2693 101.957 82.8998 101.645L80.5385 99.6437C80.0427 99.2237 79.3324 99.1706 78.7797 99.5123L76.1471 101.14C75.7352 101.394 75.2379 100.973 75.4215 100.524L76.5943 97.6606C76.8406 97.0593 76.6717 96.3679 76.1759 95.9479L73.8156 93.947C73.4461 93.634 73.6924 93.0313 74.1751 93.067L77.2622 93.2978C77.91 93.3461 78.5149 92.9718 78.7613 92.3709L79.9351 89.5071Z" fill="#FFFF9F" stroke="#FFFF9F"/>
<path d="M141.853 127.509C142.071 127.076 142.716 127.175 142.794 127.653L143.233 130.348C143.338 130.989 143.844 131.49 144.486 131.589L147.185 132.003C147.664 132.077 147.768 132.721 147.338 132.943L144.911 134.193C144.333 134.491 144.013 135.127 144.117 135.769L144.557 138.463C144.635 138.941 144.055 139.241 143.711 138.9L141.772 136.977C141.31 136.52 140.606 136.412 140.029 136.709L137.601 137.961C137.171 138.183 136.708 137.723 136.926 137.291L138.154 134.852C138.447 134.272 138.332 133.569 137.87 133.111L135.93 131.19C135.586 130.849 135.879 130.267 136.358 130.34L139.058 130.755C139.7 130.853 140.333 130.528 140.625 129.947L141.853 127.509Z" fill="#FFFF9F" stroke="#FFFF9F"/>
<path d="M163.111 80.5017C163.273 80.0452 163.925 80.063 164.062 80.5275L164.835 83.1462C165.018 83.7695 165.583 84.2031 166.233 84.2207L168.962 84.295C169.446 84.3082 169.631 84.934 169.231 85.2079L166.979 86.7518C166.444 87.1193 166.205 87.7908 166.389 88.4141L167.162 91.0327C167.299 91.4973 166.761 91.8663 166.377 91.5712L164.213 89.9062C163.698 89.5101 162.986 89.4908 162.45 89.8582L160.198 91.403C159.799 91.677 159.282 91.2792 159.444 90.8227L160.358 88.25C160.576 87.6376 160.374 86.9542 159.859 86.558L157.694 84.894C157.31 84.5988 157.528 83.9842 158.012 83.9971L160.742 84.0714C161.392 84.089 161.979 83.6867 162.197 83.0744L163.111 80.5017Z" fill="#FFFF9F" stroke="#FFFF9F"/>
<path d="M111.357 78.5902C111.46 78.1168 112.109 78.0513 112.304 78.4945L113.405 80.9932C113.666 81.5879 114.282 81.9459 114.928 81.8805L117.645 81.6058C118.127 81.5571 118.39 82.1542 118.028 82.4769L115.992 84.2955C115.507 84.7284 115.357 85.4248 115.619 86.0195L116.719 88.5182C116.915 88.9614 116.429 89.3961 116.01 89.1523L113.651 87.7772C113.089 87.4501 112.381 87.5218 111.896 87.9546L109.86 89.7742C109.499 90.0969 108.935 89.7683 109.038 89.2949L109.616 86.6265C109.754 85.9914 109.467 85.3392 108.905 85.0121L106.545 83.6381C106.127 83.3942 106.265 82.7568 106.746 82.7078L109.464 82.433C110.11 82.3676 110.642 81.8937 110.779 81.2586L111.357 78.5902Z" fill="#FFFF9F" stroke="#FFFF9F"/>
<path d="M69.2289 55.6152C69.321 55.1397 69.9679 55.0598 70.1729 55.4987L71.3285 57.9724C71.6035 58.5611 72.2265 58.9055 72.8715 58.8259L75.5814 58.4912C76.0621 58.4319 76.338 59.0231 75.984 59.3537L73.9883 61.2168C73.5134 61.6603 73.3781 62.3599 73.6531 62.9486L74.8087 65.4223C75.0137 65.8612 74.5373 66.3065 74.1136 66.072L71.7245 64.7493C71.1559 64.4347 70.4491 64.522 69.9741 64.9655L67.9785 66.8295C67.6245 67.1601 67.0541 66.844 67.1462 66.3685L67.6654 63.688C67.7889 63.05 67.4875 62.4043 66.919 62.0897L64.529 60.7681C64.1055 60.5336 64.2294 59.8933 64.7098 59.8336L67.4207 59.4989C68.0656 59.4192 68.5862 58.9337 68.7097 58.2957L69.2289 55.6152Z" fill="#FFFF9F" stroke="#FFFF9F"/>
<path d="M102.659 66.3102C102.575 65.8331 103.151 65.5277 103.499 65.8645L104.905 67.2249C105.372 67.6768 106.077 67.7771 106.651 67.4727L108.38 66.5558C108.808 66.3294 109.276 66.7821 109.063 67.217L108.203 68.9755C107.918 69.5591 108.04 70.2603 108.507 70.7121L109.914 72.0729C110.262 72.4097 109.975 72.9947 109.496 72.9269L107.558 72.6522C106.915 72.5611 106.286 72.8948 106 73.4785L105.141 75.2364C104.928 75.6715 104.283 75.5804 104.199 75.1035L103.861 73.1758C103.749 72.5358 103.238 72.041 102.594 71.9498L100.657 71.6751C100.177 71.6071 100.065 70.9654 100.493 70.7385L102.222 69.8216C102.796 69.5171 103.108 68.8769 102.996 68.2369L102.659 66.3102Z" fill="#FFFF9F" stroke="#FFFF9F"/>
<path d="M98.0644 89.6518C98.1343 89.1725 98.7768 89.0627 99.002 89.4915L99.9113 91.2234C100.213 91.7988 100.852 92.1148 101.492 92.0053L103.421 91.6755C103.899 91.5943 104.201 92.1707 103.864 92.5173L102.496 93.9182C102.043 94.3832 101.94 95.0876 102.242 95.6628L103.152 97.3955C103.377 97.8242 102.922 98.2902 102.488 98.0757L100.733 97.2085C100.151 96.9207 99.4488 97.0408 98.9949 97.5057L97.6284 98.9064C97.2901 99.253 96.706 98.9646 96.7757 98.4855L97.0579 96.5489C97.1517 95.9059 96.8208 95.2759 96.2383 94.988L94.484 94.1208C94.0498 93.9062 94.144 93.2615 94.6214 93.1799L96.5505 92.8501C97.1909 92.7405 97.6883 92.2304 97.7821 91.5874L98.0644 89.6518Z" fill="#FFFF9F" stroke="#FFFF9F"/>
<line x1="61.9858" y1="60.4535" x2="38.9791" y2="61.2366" stroke="#FFFF9F" stroke-width="2" stroke-linecap="round"/>
<line x1="100.142" y1="68.0887" x2="76.0887" y2="62.4001" stroke="#FFFF9F" stroke-width="2" stroke-linecap="round"/>
<line x1="73.3457" y1="97.3457" x2="46.3457" y2="97.3457" stroke="#FFFF9F" stroke-width="2" stroke-linecap="round"/>
<line x1="94.5407" y1="96.5084" x2="85.5084" y2="98.1506" stroke="#FFFF9F" stroke-width="2" stroke-linecap="round"/>
<line x1="133.686" y1="130.165" x2="127.689" y2="129.281" stroke="#FFFF9F" stroke-width="2" stroke-linecap="round"/>
<line x1="106.974" y1="86.71" x2="101.71" y2="89.7178" stroke="#FFFF9F" stroke-width="2" stroke-linecap="round"/>
<line x1="123.251" y1="89.5782" x2="117.878" y2="85.7406" stroke="#FFFF9F" stroke-width="2" stroke-linecap="round"/>
<line x1="136.629" y1="88.1606" x2="151.821" y2="70.2377" stroke="#FFFF9F" stroke-width="2" stroke-linecap="round"/>
<line x1="123.437" y1="117.118" x2="127.535" y2="101.754" stroke="#FFFF9F" stroke-width="2" stroke-linecap="round"/>
<line x1="160.128" y1="81.6266" x2="158.025" y2="73.4604" stroke="#FFFF9F" stroke-width="2" stroke-linecap="round"/>
<line x1="110.246" y1="76.5457" x2="107.846" y2="74.7457" stroke="#FFFF9F" stroke-width="2" stroke-linecap="round"/>
</svg>
